<svg preserveAspectRatio="none" width="100%" height="100%" overflow="visible" style="display: block;" viewBox="0 0 54 24" fill="none" xmlns="http://www.w3.org/2000/svg">
<g id="Frame">
<path id="Vector" d="M30.1856 0C33.1698 0.637277 33.5843 2.97396 36.4028 3.73869C38.8068 4.41845 41.874 3.69621 44.5266 3.90863C46.7648 4.07857 48.6715 4.92828 49.832 5.90543C50.9926 6.88259 51.6557 8.02969 52.236 9.17679C52.8163 10.2389 53.3137 11.3435 53.1479 12.4481C52.9821 13.5528 51.9873 14.6574 50.0807 15.2097C47.6767 15.8894 44.6095 15.4646 41.9569 15.0822C39.2213 14.7423 35.9883 14.5724 34.0817 15.6345C31.0974 17.3339 34.662 20.3929 31.9264 22.2197C30.7658 22.9845 28.6105 23.3243 26.7868 22.942C25.046 22.5596 23.8854 21.5825 24.0512 20.6053C24.217 19.968 24.7973 19.4157 25.1289 18.8209C25.4605 18.2261 25.4605 17.4614 24.5486 17.079C23.5538 16.6542 21.9788 16.8241 20.8182 17.164C19.6577 17.5039 18.7458 18.0137 17.4195 18.2261C16.176 18.4386 14.4352 18.1836 14.1865 17.5039C13.6063 17.0365 13.4405 16.2718 12.3628 16.1444C9.79302 15.762 9.95881 18.4386 10.2075 19.7981C10.5391 21.1576 10.4562 22.857 8.05219 23.4518C6.47716 23.8342 4.48764 23.4093 3.49288 22.6871C2.49813 21.9648 0.177024 20.6053 2.74681 18.3536C3.74157 17.5039 3.32709 16.4417 2.66392 15.5071C1.91785 14.6149 0.840196 13.7652 0.342817 12.8305C-0.569044 11.1736 0.50861 9.38922 1.58626 7.7323C2.24944 6.62768 2.9955 5.52307 4.23895 4.54591C5.4824 3.61124 7.47191 2.80402 9.71012 2.67656C12.4457 2.50662 15.1813 3.31384 17.834 3.01644C20.1551 2.76153 21.8959 1.78438 23.6367 0.977158" fill="var(--fill-0, #E3F2FD)"/>
<path id="Vector_2" d="M23.7202 0.724246C21.9793 1.53146 20.2376 2.8465 17.9165 3.10142C15.2638 3.39881 12.5282 2.59159 9.79265 2.76153C7.55444 2.88899 5.64782 3.69621 4.32148 4.63088C3.24382 5.4381 2.58065 6.41526 1.91748 7.34993C2.82934 8.11466 3.57541 8.96436 4.32148 9.81407C4.98465 10.5788 5.64782 11.386 6.31099 12.1508C6.89127 12.788 7.38865 13.4678 7.13996 14.1051C6.97417 14.6149 6.39389 15.0397 6.31099 15.5071C6.2281 16.0169 7.05706 16.8666 7.80313 16.5267C9.54396 15.8045 9.29527 14.3175 10.8703 13.4678C12.4453 12.6606 15.098 12.2357 17.0046 12.8305C18.8284 13.3828 19.9889 14.7423 22.0613 14.5724C23.885 14.4025 25.3772 13.0854 26.8693 13.5952C28.2786 14.0626 27.2838 15.6345 28.9417 15.8045C29.7707 15.8894 30.5168 15.4221 30.5997 14.9973C30.7655 14.5724 30.5168 14.1051 30.7655 13.6802C31.097 12.958 32.4234 12.4481 33.9155 12.2357C35.3248 12.0233 36.8169 12.1083 38.309 12.1083C43.2828 12.1507 48.3395 11.6409 52.8988 10.6213C52.733 10.1115 52.4843 9.60164 52.2356 9.09182C51.6554 7.94472 51.0751 6.84011 49.8316 5.82046C48.6711 4.84331 46.7645 3.9936 44.5263 3.82366C41.7907 3.61124 38.8064 4.33348 36.4024 3.65372C33.5839 2.97396 33.0223 0.362123 30.1852 0" fill="var(--fill-0, white)"/>
<path id="Vector_3" opacity="0.5" d="M2.83026 15.5496C3.57633 16.4418 3.90791 17.5464 2.91315 18.3961C0.343363 20.6478 2.66446 22.0073 3.65922 22.7296C4.65398 23.4518 6.6435 23.8767 8.21853 23.4943C10.6225 22.942 10.7054 21.2001 10.3738 19.8406C10.0423 18.4811 9.95936 15.8045 12.5291 16.1869C13.5239 16.3143 13.6897 17.0791 14.3529 17.5464C14.6016 18.2262 16.3424 18.4811 17.5858 18.2686C18.8293 18.0562 19.824 17.5464 20.9846 17.2065C22.1451 16.8666 23.7202 16.6542 24.7149 17.1215C25.6268 17.5039 25.7097 18.2686 25.2952 18.8634C24.9636 19.4582 24.3004 20.0105 24.2176 20.6478C23.9689 21.625 25.1294 22.6446 26.9531 22.9845C28.694 23.3669 30.9322 23.027 32.0927 22.2622C34.7454 20.4354 31.2638 17.3765 34.248 15.6771C36.0717 14.6149 39.3876 14.7849 42.1232 15.1247C44.8588 15.4646 47.843 15.932 50.247 15.2522C52.1537 14.6999 53.1484 13.5953 53.3142 12.4907C53.3142 12.3207 53.3142 12.1508 53.3142 11.9808C52.2366 12.1508 51.2418 12.3632 50.247 12.5756C45.7706 13.4253 40.714 14.3175 36.1546 13.6378C35.2428 13.5103 34.248 13.6803 33.502 14.1051C32.7559 14.53 32.3414 15.0398 32.0098 15.5496C31.2638 16.4843 30.6006 17.4614 29.8545 18.3961C29.6887 18.651 29.2742 18.9484 28.7769 18.8634C28.2795 18.821 28.2795 18.4811 28.1966 18.2686C28.0308 17.3765 27.036 16.5268 25.5439 16.0594C24.0518 15.5921 22.1451 15.4646 20.5701 15.762C19.9069 15.8895 19.2438 16.1019 18.4977 16.2294C17.8345 16.3568 17.0056 16.3993 16.3424 16.2294C15.6792 16.0594 15.7621 15.6346 15.7621 15.2522C15.6792 14.53 13.5239 14.6574 12.5291 14.8698C11.5344 15.1247 10.7883 15.5496 10.208 16.0169C8.63301 16.9941 7.55536 18.0987 6.80929 19.2458C6.6435 19.4582 6.39481 19.7556 5.89743 19.7556C5.15136 19.7556 5.15136 19.1608 5.31715 18.7785C6.22901 16.9941 4.81977 15.1672 3.49343 13.4678C2.74736 12.5332 1.9184 11.556 0.260467 11.0462C0.260467 11.0462 0.260467 11.0462 0.177571 11.0462C0.0946741 11.6835 0.177571 12.2782 0.42626 12.873C1.00654 13.8077 2.08419 14.6574 2.83026 15.5496Z" fill="var(--fill-0, #BBDEFB)"/>
<path id="Vector_4" d="M6.47698 9.09175C6.70589 9.09175 6.89147 8.99665 6.89147 8.87933C6.89147 8.76201 6.70589 8.6669 6.47698 8.6669C6.24807 8.6669 6.0625 8.76201 6.0625 8.87933C6.0625 8.99665 6.24807 9.09175 6.47698 9.09175Z" fill="var(--fill-0, #E3F2FD)"/>
<path id="Vector_5" d="M46.8474 10.239C47.763 10.239 48.5053 9.85859 48.5053 9.38931C48.5053 8.92004 47.763 8.53961 46.8474 8.53961C45.9317 8.53961 45.1895 8.92004 45.1895 9.38931C45.1895 9.85859 45.9317 10.239 46.8474 10.239Z" fill="var(--fill-0, #E3F2FD)"/>
</g>
</svg>
