<svg preserveAspectRatio="none" width="100%" height="100%" overflow="visible" style="display: block;" viewBox="0 0 58 35" fill="none" xmlns="http://www.w3.org/2000/svg">
<g id="Frame">
<path id="Vector" d="M1.57495 20.2877C0.240621 14.1998 -1.92765 7.52819 3.49304 2.69127C7.99638 -1.3951 14.668 -0.0607734 19.8385 1.69053C24.2584 3.19164 28.7618 4.02559 33.4319 4.19238C39.353 4.35917 46.2748 -1.72868 51.8622 1.10676C56.2822 3.35843 57.6165 8.86251 57.2829 13.4492C56.449 24.8744 53.1966 38.0508 50.6113 33.7143C48.0261 29.3777 52.1124 19.1201 48.2763 17.619C44.4401 16.2013 40.7707 20.788 34.5994 21.0382C28.3448 21.2884 27.0939 14.9504 19.8385 17.2854C13.6672 19.2869 15.2518 28.1268 13.2503 32.6301C12.6665 34.0479 11.1654 35.132 9.66428 34.9652C5.74471 34.3814 4.41038 30.0449 3.40964 26.7091C2.82587 25.208 2.15871 22.8729 1.57495 20.2877Z" fill="var(--fill-0, white)"/>
<path id="Vector_2" d="M48.2761 11.0315C44.4399 9.61381 40.7705 14.2005 34.5993 14.4507C28.3447 14.7009 27.0937 8.36288 19.8384 10.6979C13.6671 12.6994 15.2516 21.5393 13.2501 26.0427C12.6664 27.4604 11.1653 28.5445 9.66414 28.3777C5.74457 27.794 4.41024 23.4574 3.4095 20.1216C2.90913 18.4537 2.24197 16.202 1.6582 13.6168C1.24122 11.6987 0.740854 9.6972 0.407273 7.77911C-0.510074 11.6987 0.740854 16.1186 1.6582 20.205C2.24197 22.7902 2.90913 25.1253 3.4095 26.7098C4.41024 29.9622 5.74457 34.2988 9.66414 34.9659C11.1653 35.2161 12.583 34.0486 13.2501 32.6309C15.2516 28.1275 13.7505 19.2877 19.8384 17.2862C27.0937 14.9511 28.4281 21.2891 34.5993 21.0389C40.7705 20.7888 44.4399 16.1186 48.2761 17.6197C49.1101 17.9533 49.6104 18.7039 49.8606 19.7046C50.0274 15.7851 50.5278 11.9489 48.2761 11.0315Z" fill="var(--fill-0, #D9F1FF)"/>
<path id="Vector_3" d="M50.6111 27.1265C50.2775 26.5427 50.0273 25.7922 49.8605 25.0416C49.6103 28.2106 49.3602 31.7132 50.6111 33.7147C53.1963 38.0512 56.3653 24.8748 57.2827 13.4497C57.3661 12.0319 57.3661 10.5308 57.1159 9.11311C55.9484 19.9545 53.0295 31.2128 50.6111 27.1265Z" fill="var(--fill-0, #D9F1FF)"/>
<path id="Vector_4" d="M48.2757 15.2007C44.4395 13.783 40.7701 18.3697 34.5989 18.6199C28.4276 18.8701 27.0933 12.5321 19.8379 14.8671C13.6667 16.8686 15.2512 25.7085 13.2497 30.2119C12.6659 31.6296 11.1648 32.7137 9.66371 32.5469C5.74413 31.9632 4.40981 27.6266 3.40907 24.2908C2.9087 22.6229 2.24154 20.3712 1.65777 17.786C1.074 15.1173 0.323447 12.3653 0.0732615 9.61325C-0.176924 13.0325 0.823818 16.7852 1.65777 20.2044C2.24154 22.7897 2.9087 25.1248 3.40907 26.7093C4.40981 29.9617 5.74413 34.2982 9.66371 34.9654C11.1648 35.2156 12.5825 34.048 13.2497 32.6303C15.2512 28.127 13.7501 19.2871 19.8379 17.2856C27.0933 14.9505 28.4276 21.2886 34.5989 21.0384C40.7701 20.7882 44.4395 16.1181 48.2757 17.6192C49.4432 18.0362 49.8602 19.2871 50.027 20.955C50.1104 18.203 49.9436 15.8679 48.2757 15.2007Z" fill="var(--fill-0, #B4DCFF)"/>
<path id="Vector_5" d="M57.2821 10.9479C56.4482 22.373 53.1958 35.5495 50.6105 31.2129C50.0267 30.2956 49.7765 29.0446 49.6932 27.6269C49.6098 29.962 49.6932 32.1303 50.6105 33.6314C53.1958 37.9679 56.3648 24.7915 57.2821 13.3663C57.3655 12.5324 57.3655 11.615 57.2821 10.7811C57.2821 10.8645 57.2821 10.9479 57.2821 10.9479Z" fill="var(--fill-0, #B4DCFF)"/>
<path id="Vector_6" d="M15.4183 3.02511C15.4183 3.85906 13.3334 4.69301 10.6648 4.69301C7.99616 4.69301 5.82788 4.10924 5.82788 3.27529C5.82788 2.44134 7.91276 1.60739 10.5814 1.60739C13.2501 1.52399 15.4183 2.10776 15.4183 3.02511Z" fill="var(--fill-0, #D9F1FF)"/>
<path id="Vector_7" fill-rule="evenodd" clip-rule="evenodd" d="M27.0934 31.1286C27.0934 32.2961 26.0926 33.2968 24.9251 33.2968C23.7576 33.2968 22.7568 32.2961 22.7568 31.1286C22.7568 29.961 23.7576 28.9603 24.9251 28.9603C26.176 28.9603 27.0934 29.961 27.0934 31.1286Z" fill="var(--fill-0, white)"/>
<path id="Vector_8" fill-rule="evenodd" clip-rule="evenodd" d="M10.4981 17.0351C10.4981 17.6189 9.99774 18.1192 9.41397 18.1192C8.83021 18.1192 8.32983 17.6189 8.32983 17.0351C8.32983 16.4513 8.83021 15.951 9.41397 15.951C9.99774 15.951 10.4981 16.4513 10.4981 17.0351Z" fill="var(--fill-0, white)"/>
</g>
</svg>
