<svg preserveAspectRatio="none" width="100%" height="100%" overflow="visible" style="display: block;" viewBox="0 0 118 52" fill="none" xmlns="http://www.w3.org/2000/svg">
<g id="Frame">
<path id="Vector" d="M114.879 36.2907C114.459 36.8794 114.206 37.5522 113.954 38.3932C113.87 38.7296 113.786 39.066 113.702 39.4024C112.356 45.5417 113.533 54.8768 107.983 50.9241C101.423 46.1304 108.319 29.1422 102.6 24.3485C96.9657 19.5548 93.013 26.1146 90.0695 32.6744C87.0419 39.2342 79.8934 37.4681 79.3047 31.497C78.716 25.5259 71.2311 23.4234 61.9801 25.1895C52.8132 27.0397 56.3454 16.8636 50.963 16.8636C45.5806 16.8636 44.9919 31.8334 35.0681 34.1041C23.1259 36.8794 26.6581 25.2736 20.3506 22.3301C14.0431 19.3866 13.8749 29.7309 6.38998 32.4221C1.00757 34.3564 -3.28153 21.3209 3.44647 15.0975C3.86698 14.677 4.37158 14.3406 4.96028 14.0042C6.72638 12.9109 8.07198 12.3222 9.24938 11.8176C12.1088 10.7243 13.959 10.3038 18.4163 4.58501C24.7238 -3.4886 38.0957 1.55741 38.0957 1.55741C56.9341 9.71511 62.3165 3.07121 74.0064 4.92141C85.6122 6.68751 92.2561 1.38921 100.918 2.56661C109.581 3.65991 110.169 8.20131 114.963 14.8452C115.72 15.9385 116.309 17.0318 116.813 18.2933C119.168 24.4326 117.654 32.0016 114.879 36.2907Z" fill="var(--fill-0, white)"/>
<path id="Vector_2" d="M89.3077 10.8301C89.2361 12.189 85.8746 13.1187 81.7979 12.9757C77.7212 12.8327 74.4312 11.6168 74.4312 10.3294C74.5027 8.97049 77.8642 8.04071 81.9409 8.18375C86.0892 8.32679 89.3792 9.54266 89.3077 10.8301Z" fill="var(--fill-0, #D9F1FF)"/>
<path id="Vector_3" d="M114.879 36.2904C111.599 41.3364 114.543 55.7176 107.983 50.9238C101.423 46.1301 108.319 29.1419 102.6 24.3482C96.9656 19.5545 93.0129 26.1143 90.0694 32.6741C87.0418 39.2339 79.8933 37.4678 79.3046 31.4967C78.7159 25.5256 71.231 23.4231 61.98 25.1892C52.8131 27.0394 56.3453 16.8633 50.9629 16.8633C45.5805 16.8633 44.9918 31.8331 35.068 34.1038C23.1258 36.8791 26.658 25.2733 20.3505 22.3298C14.0429 19.3863 13.8747 29.7306 6.38984 32.4218C0.671041 34.5243 -3.87036 19.4704 4.96014 14.0039C6.72624 12.9106 8.07184 12.3219 9.24924 11.8173C9.08104 11.9855 2.10074 17.7043 5.04424 22.6662C7.98774 27.7963 11.3517 18.293 15.8931 16.2746C20.4346 14.2562 28.2559 15.1813 29.5174 19.5545C30.7789 23.9277 39.6935 27.1235 41.8801 19.4704C44.0667 11.8173 48.6922 9.46251 52.3926 10.0512C56.093 10.5558 61.7277 16.7792 62.4846 19.134C63.2415 21.4888 72.4925 17.6202 77.6226 20.3955C82.7527 23.1708 80.8184 27.544 86.0326 26.7871C91.2468 26.0302 91.8355 15.8541 101.928 17.0315C112.02 18.1248 108.151 31.4126 110.338 33.0105C112.524 34.6084 120.093 30.067 116.897 18.1248C119.168 24.4323 117.654 32.0013 114.879 36.2904Z" fill="var(--fill-0, #D9F1FF)"/>
<path id="Vector_4" d="M113.702 39.4018C112.356 45.5411 113.533 54.8762 107.983 50.9235C101.423 46.1298 108.319 29.1416 102.6 24.3479C96.9657 19.5542 93.013 26.114 90.0695 32.6738C87.0419 39.2336 79.8934 37.4675 79.3047 31.4964C78.716 25.5253 71.2311 23.4228 61.9801 25.1889C52.8132 27.0391 56.3454 16.863 50.963 16.863C45.5806 16.863 44.9919 31.8328 35.0681 34.1035C23.1259 36.8788 26.6581 25.273 20.3506 22.3295C14.0431 19.386 13.8749 29.7303 6.38998 32.4215C1.00757 34.3558 -3.28153 21.3203 3.44647 15.0969C3.36237 15.2651 -0.338026 20.8157 2.77367 25.9458C5.88538 31.16 10.7632 26.3663 12.1929 23.0023C13.6226 19.6383 18.0799 16.6107 22.369 18.545C26.7422 20.4793 26.574 29.478 32.2087 29.8985C37.8434 30.319 43.1417 25.273 45.7488 18.6291C48.3559 11.9852 52.1404 12.658 54.327 14.5082C56.5136 16.3584 56.5136 23.1705 61.896 22.1613C67.2784 21.1521 75.7725 20.5634 78.8001 25.4412C81.8277 30.319 81.7436 34.9445 85.8645 33.0102C89.9854 31.0759 92.172 19.1337 100.582 20.1429C108.992 21.1521 107.226 30.9077 107.058 36.206C106.974 41.5043 106.721 45.8775 109.244 46.9708C111.179 47.7277 113.029 41.8407 113.702 39.4018Z" fill="var(--fill-0, #B4DCFF)"/>
</g>
</svg>
