<svg preserveAspectRatio="none" width="100%" height="100%" overflow="visible" style="display: block;" viewBox="0 0 204 44" fill="none" xmlns="http://www.w3.org/2000/svg">
<g id="Frame">
<path id="Vector" d="M5.28972 26.3794C-0.156318 24.5606 -1.78058 19.1041 2.23229 15.7575L2.32784 15.6847C4.90754 13.5749 8.25159 12.2653 11.5957 10.9558C19.4303 7.90014 27.9338 4.69901 36.7239 5.71755C42.9342 6.44508 48.6669 9.20969 54.8773 9.5007C62.6164 9.93722 69.8778 6.59059 77.6169 6.15407C86.0248 5.6448 94.3372 8.55491 102.841 8.04564C115.261 7.31811 126.058 -0.611953 138.383 0.406588C146.791 1.13412 153.957 5.93581 162.365 6.37233C168.575 6.66334 175.454 4.62626 180.709 7.17261C184.722 9.13694 186.633 13.3566 191.315 14.0841C194.754 14.5934 198.767 12.9201 201.634 14.7389C203.162 15.7575 203.64 17.2853 203.162 18.8131C202.398 21.4322 199.627 23.1055 197.047 24.7061C191.793 27.8344 185.2 31.1811 178.99 29.435C175.263 28.4165 172.015 25.6518 168.193 26.4521C166.569 26.8159 165.231 27.6889 163.702 28.271C160.741 29.3622 157.301 28.9257 154.052 28.9257C150.804 28.9257 146.982 29.7988 145.931 32.1269C145.071 33.9457 146.218 35.9828 146.887 37.8743C147.555 39.8387 147.078 42.5305 144.402 43.0398C142.778 43.3308 141.154 42.676 140.294 41.5847C138.097 38.8929 139.816 35.6918 138.574 32.9271C137.523 30.6718 134.561 29.144 131.504 28.853C129.689 28.7075 127.873 28.9257 126.058 29.5078C123.192 30.4535 120.039 30.3808 117.077 29.6533C115.835 29.3622 114.688 29.2167 113.351 29.144C110.198 29.0712 106.854 30.3808 105.994 32.6361C105.325 34.3094 105.803 36.6375 103.701 37.3651C102.65 37.7288 101.503 37.5106 100.643 37.0013C99.3055 36.1283 98.7322 34.8915 98.0634 33.6547C95.9614 29.726 90.7065 26.1611 85.356 27.2524C80.3877 28.271 76.8525 32.8544 71.8842 32.0541C67.8714 31.3993 65.9605 27.5434 61.9476 26.8886C56.7882 26.0884 52.7753 31.1811 47.5204 30.8901C45.6095 30.7446 43.9852 29.9443 42.1699 29.435C40.4501 28.853 38.2526 28.6347 36.7239 29.5805C35.1951 30.5263 35.1951 32.1996 35.5773 33.6547C35.8639 34.455 36.1506 35.2552 36.4372 36.0555C36.9149 37.7288 36.2461 39.5477 34.6219 40.7845C30.9912 43.5491 25.6407 41.221 25.163 38.1653C24.8763 36.7103 25.6407 35.1825 26.1184 33.7274C26.5961 32.2724 26.5961 30.5263 25.2585 29.435C23.9209 28.3437 21.8189 28.271 19.8125 28.1982C15.1308 28.0527 10.258 27.9799 5.28972 26.3794Z" fill="var(--fill-0, #D9F1FF)"/>
<path id="Vector_2" d="M188.926 21.5061C192.843 20.3421 196.474 18.6688 200.391 17.3592C201.347 17.0682 202.302 16.7772 203.258 16.5589C202.971 15.9042 202.493 15.2494 201.825 14.8129C198.958 12.9213 194.945 14.6674 191.506 14.1581C186.824 13.4306 184.913 9.21089 180.9 7.24656C175.645 4.70021 168.766 6.73729 162.556 6.44628C154.148 6.00976 146.982 1.20807 138.574 0.480537C126.249 -0.538004 115.452 7.31931 103.032 8.11959C94.5282 8.48336 86.2158 5.57324 77.7124 6.08251C69.9733 6.51903 62.7119 9.86566 54.9728 9.42914C48.6669 9.06538 43.0297 6.30077 36.8193 5.64599C28.1248 4.70021 19.5258 7.82858 11.6911 10.8842C8.34709 12.1938 4.90748 13.5033 2.42333 15.6131L2.32778 15.6859C1.65897 16.1952 1.18125 16.8499 0.799074 17.432C2.90105 19.9783 6.72283 21.5789 10.6402 21.7244C15.6085 21.8699 20.4812 19.6873 25.354 20.3421C30.2268 20.9969 33.953 24.4162 38.8258 24.7073C44.2718 25.071 49.4312 21.5789 54.6862 22.6702C57.0748 23.1794 59.2723 24.6345 61.7564 24.2707C63.5718 23.9797 65.1005 22.7429 66.9158 22.9612C69.0178 23.2522 69.7822 25.362 71.6931 26.0168C73.8906 26.7443 76.1837 25.362 78.1901 24.4162C84.2094 21.5789 92.7129 22.3792 97.4901 26.3078C98.2544 26.8898 99.1143 27.3991 100.165 27.6901C103.127 28.5632 104.178 26.9626 105.707 25.8713C108.573 23.8342 112.968 23.8342 116.981 23.9797C122.045 24.198 127.109 24.4162 132.173 25.071C135.803 25.5803 139.339 26.3078 143.065 26.2351C146.695 26.1623 150.613 25.071 152.524 23.2522C153.766 22.0154 156.154 22.0154 158.161 22.3064C160.167 22.6702 162.174 23.2522 164.085 22.8884C166.282 22.4519 167.906 20.9241 170.104 20.6331C172.397 20.3421 174.594 21.4334 176.792 22.0882C180.518 23.1794 185.009 22.5974 188.926 21.5061Z" fill="var(--fill-0, white)"/>
<path id="Vector_3" opacity="0.5" d="M0.417727 22.2299C1.18208 23.976 2.80634 25.5766 5.29049 26.3769C10.1633 27.9774 15.1316 28.0502 20.0999 28.1957C22.0108 28.1957 24.2083 28.3412 25.5459 29.4325C26.8835 30.5238 26.788 32.2698 26.4058 33.7249C25.9281 35.18 25.2593 36.635 25.4504 38.1628C26.0236 41.2184 31.2786 43.4738 34.9093 40.7819C36.5335 39.5451 37.2023 37.7991 36.7246 36.053C36.438 35.2527 36.1514 34.4524 35.8647 33.6521C35.4825 32.1971 35.4825 30.5238 37.0113 29.578C38.4444 28.6322 40.6419 28.9232 42.4573 29.4325C44.1771 30.0145 45.8969 30.8148 47.8078 30.8875C53.0627 31.1785 57.0756 26.0858 62.235 26.8861C66.2479 27.5409 68.1588 31.3968 72.1716 32.0516C77.1399 32.8519 80.7706 28.2684 85.6434 27.2499C90.9939 26.1586 96.2488 29.7962 98.3508 33.6521C99.0196 34.8162 99.4973 36.1257 100.931 36.9988C101.79 37.508 103.032 37.7263 103.988 37.3625C106.09 36.635 105.612 34.3069 106.281 32.6336C107.141 30.3783 110.58 29.1415 113.638 29.1415C114.88 29.1415 116.122 29.3597 117.364 29.6507C120.326 30.3055 123.479 30.3783 126.345 29.5052C128.161 28.9232 129.976 28.7049 131.791 28.8504C134.849 29.1415 137.906 30.6693 138.862 32.9246C140.104 35.6892 138.384 38.8904 140.581 41.5822C141.441 42.6735 143.066 43.2555 144.69 43.0373C147.461 42.528 147.843 39.9089 147.174 37.8718C146.505 35.9802 145.359 34.0159 146.219 32.1243C147.27 29.7962 151.091 28.996 154.34 28.9232C157.588 28.9232 161.028 29.3597 163.99 28.2684C165.519 27.6864 166.761 26.7406 168.48 26.4496C172.302 25.7221 175.551 28.4139 179.277 29.4325C185.583 31.1785 192.08 27.8319 197.335 24.7035C199.532 23.394 201.825 21.9389 202.972 19.9746C200.679 20.7749 198.673 22.1572 196.188 22.5937C193.8 23.0302 191.124 22.5937 188.831 23.2485C185.105 24.267 182.43 28.0502 177.939 25.7221C177.366 25.4311 176.888 25.0673 176.411 24.7035C176.411 24.7035 176.411 24.7035 176.411 24.6308C174.404 23.0302 171.251 22.5937 168.767 23.685C163.417 26.0131 156.346 26.0131 149.945 27.1771C148.225 27.4681 146.41 27.9047 145.072 28.8504C143.734 29.7962 142.97 31.324 143.639 32.5608C143.926 33.0701 144.403 33.5794 144.499 34.0887C144.499 34.6707 143.639 35.2527 143.066 34.8162C142.875 34.6707 142.779 34.4524 142.779 34.1614C141.919 30.3783 137.142 27.6864 132.269 26.8134C128.734 26.2313 122.619 26.6679 119.371 26.9589C118.033 27.1044 116.791 27.1771 115.453 27.1771C112.109 27.2499 105.23 27.7592 103.319 30.3783C102.937 30.8875 102.555 31.4696 101.79 31.5423C100.835 31.6878 100.166 30.9603 99.5929 30.3055C95.7711 25.9403 88.2231 25.1401 81.4394 26.0131C79.3374 26.4496 77.9043 27.1044 76.4711 27.9774C75.1335 28.8504 73.3182 29.578 71.6939 29.2142C70.7384 28.996 69.9741 28.3412 69.2097 27.8319C65.4835 25.4311 60.133 24.9945 55.2602 25.3583C49.7187 25.7221 44.2726 26.9589 38.7311 26.5224C37.8712 26.4496 37.1068 26.4496 36.2469 26.5951C31.5652 27.5409 32.3296 30.0872 32.4251 32.3426C32.5207 33.7976 31.5652 36.9988 30.1321 36.053C28.3167 34.8889 30.992 32.4153 30.7053 30.5965C30.5142 28.7777 29.4632 26.8861 27.5524 25.7948C25.0682 24.3398 21.6286 24.4125 18.4756 24.4853C14.1761 24.558 9.78108 24.6308 5.57713 23.8305C3.85733 23.394 2.13752 22.8847 0.417727 22.2299Z" fill="var(--fill-0, #B4DCFF)"/>
</g>
</svg>
