<svg preserveAspectRatio="none" width="100%" height="100%" overflow="visible" style="display: block;" viewBox="0 0 152 71" fill="none" xmlns="http://www.w3.org/2000/svg">
<g id="Frame">
<path id="Vector" d="M2.23796 21.0181C2.23796 21.0181 3.5166 1.11914 26.2925 8.23161C38.2798 11.9876 50.1872 15.7437 62.8138 13.2663C75.84 10.709 87.9073 4.71533 101.413 4.71533C111.722 4.71533 124.189 6.87305 130.502 15.9834C136.096 24.0549 133.219 34.6836 131.141 43.3944C130.902 44.5132 129.064 52.9842 126.586 50.5068C121.632 45.5521 125.308 34.6836 120.752 30.1284C117.076 26.4523 115.718 29.4092 114.519 33.0853C112.841 38.04 108.605 40.6773 106.607 33.6447C105.009 27.9707 101.093 25.0938 95.1796 24.7741C85.35 24.2946 86.9483 32.6058 85.5098 39.3986C84.8705 42.3555 82.7927 46.9107 79.1965 46.7508C73.3627 46.5111 77.5982 36.0422 76.3195 32.8455C74.7212 28.9297 69.9263 31.2472 67.0493 32.1263C62.4942 33.4849 57.6193 33.7246 52.9842 32.8455C49.5479 32.2062 44.1136 29.0096 41.0768 32.2861C39.7982 33.6447 39.3187 35.6426 39.079 37.4806C38.6794 40.6773 38.5995 43.8739 38.5195 47.0705C38.3597 53.0641 30.7677 53.5436 30.0485 47.4701C29.1694 40.6773 31.0874 25.4134 19.6595 27.0916C15.2642 27.731 11.5081 32.6058 6.95296 31.3272C2.55762 30.0485 1.99821 24.6942 2.23796 21.0181Z" fill="var(--fill-0, white)"/>
<path id="Vector_2" d="M76.2391 24.4523C74.6408 20.5365 69.8459 22.854 66.9689 23.7331C62.4137 25.0916 57.5389 25.3314 52.9038 24.4523C49.4674 23.813 44.0332 20.6164 40.9964 23.8929C39.7178 25.2515 39.2383 27.2494 38.9985 29.0874C38.5989 32.284 38.519 35.4806 38.4391 38.6773C38.2793 44.6709 30.6873 45.1504 29.9681 39.0768C29.089 32.284 31.007 17.0202 19.5791 18.6984C15.1837 19.3377 11.4277 24.2126 6.87253 22.9339C4.55498 22.2946 3.35625 20.4565 2.79684 18.2988C2.39726 19.8971 2.31735 21.016 2.31735 21.016C2.0776 24.6921 2.63701 30.0464 6.87253 31.2451C11.4277 32.5238 15.2636 27.6489 19.5791 27.0096C31.007 25.3314 29.089 40.5952 29.9681 47.388C30.7672 53.3817 38.2793 52.9821 38.4391 46.9885C38.519 43.7119 38.6789 40.5952 38.9985 37.3986C39.2383 35.4806 39.7178 33.5627 40.9964 32.2041C44.0332 28.9276 49.4674 32.1242 52.9038 32.7635C57.5389 33.6426 62.4137 33.4028 66.9689 32.0443C69.686 31.2451 74.1613 29.0874 75.9993 32.284C76.1592 29.3272 76.8784 26.0506 76.2391 24.4523Z" fill="var(--fill-0, #D9F1FF)"/>
<path id="Vector_3" d="M131.141 35.0815C130.902 36.2003 129.064 44.6714 126.586 42.194C121.631 37.2392 125.308 26.3707 120.752 21.8156C117.076 18.1395 115.718 21.0963 114.519 24.7724C112.841 29.7272 108.605 32.3644 106.607 25.3318C105.009 19.6579 101.093 16.7809 95.1794 16.4612C85.3498 15.9817 86.9482 24.2929 85.5097 31.0858C84.8704 34.0426 82.7926 38.5978 79.1964 38.438C77.7579 38.3581 76.8788 37.6388 76.4792 36.5999C76.0797 40.9153 74.9608 46.5893 79.1964 46.7492C82.8725 46.909 84.8704 42.3538 85.5097 39.397C87.0281 32.6041 85.3498 24.2929 95.1794 24.7724C101.173 25.0921 105.009 27.8891 106.607 33.643C108.605 40.6756 112.841 37.9585 114.519 33.0836C115.798 29.4874 117.076 26.5306 120.752 30.1268C125.308 34.6819 121.631 45.5504 126.586 50.5052C129.064 52.9826 130.902 44.5915 131.141 43.3927C132.58 37.2392 134.418 30.1268 133.459 23.6536C132.979 27.5695 132.02 31.4853 131.141 35.0815Z" fill="var(--fill-0, #D9F1FF)"/>
<path id="Vector_4" d="M76.4793 33.7234C76.5592 32.5247 76.5592 31.4059 76.2396 30.6866C74.6413 26.7708 69.8463 29.0883 66.9694 29.9674C62.4142 31.3259 57.5394 31.5657 52.9043 30.6866C49.4679 30.0473 44.0337 26.8507 40.9969 30.1272C39.7182 31.4858 39.2388 33.4837 38.999 35.3217C38.5994 38.5183 38.5195 41.7149 38.4396 44.9116C38.2798 50.9052 30.6878 51.3847 29.9686 45.3111C29.0895 38.5183 31.0075 23.2545 19.5796 24.9327C15.1842 25.572 11.3483 30.4469 6.7931 29.1682C3.43666 28.2092 2.31784 24.613 2.15801 21.3365C1.99818 25.0126 2.6375 30.0473 6.7931 31.246C11.3483 32.5247 15.1842 27.6498 19.4996 27.0105C30.9275 25.3323 29.0096 40.5961 29.8887 47.3889C30.6878 53.3826 38.1999 52.983 38.3597 46.9894C38.4396 43.7128 38.5994 40.5961 38.9191 37.3995C39.1588 35.4815 39.6383 33.5636 40.917 32.205C43.9538 28.9285 49.388 32.1251 52.8244 32.7644C57.4595 33.6435 62.3343 33.4037 66.8895 32.0452C69.7664 31.1661 74.5614 28.8486 76.1597 32.7644C76.3195 33.0841 76.3994 33.4037 76.4793 33.7234Z" fill="var(--fill-0, #B4DCFF)"/>
<path id="Vector_5" d="M131.141 41.3158C130.901 42.4347 129.063 50.9057 126.586 48.4283C121.631 43.4735 125.307 32.6051 120.752 28.0499C117.076 24.3738 115.717 27.3306 114.519 31.0068C112.84 35.9615 108.605 38.5987 106.607 31.5662C105.009 25.8922 101.093 23.0152 95.1792 22.6956C85.3496 22.2161 86.9479 30.5273 85.5094 37.3201C84.8701 40.2769 82.7923 44.8321 79.1961 44.6723C76.9584 44.5924 76.2392 42.9941 76.0794 40.8363C75.9195 43.8731 76.3191 46.5903 79.1961 46.7501C82.8722 46.9099 84.8701 42.3547 85.5094 39.3979C87.0278 32.6051 85.3496 24.2939 95.1792 24.7734C101.173 25.093 105.009 27.89 106.607 33.644C108.605 40.6765 112.84 37.9594 114.519 33.0846C115.797 29.4884 117.076 26.5315 120.752 30.1277C125.307 34.6829 121.631 45.5514 126.586 50.5061C129.063 52.9835 130.901 44.5924 131.141 43.3936C132.34 38.1192 133.938 32.2055 133.698 26.5315C133.539 31.5662 132.26 36.6807 131.141 41.3158Z" fill="var(--fill-0, #B4DCFF)"/>
<path id="Vector_6" d="M118.914 10.7889C118.674 11.9077 115.558 12.2274 112.041 11.4282C108.525 10.6291 105.888 9.03077 106.128 7.91195C106.367 6.79314 109.484 6.47347 113 7.27263C116.517 8.07178 119.154 9.67009 118.914 10.7889Z" fill="var(--fill-0, #D9F1FF)"/>
<path id="Vector_7" d="M104.369 7.75231C104.369 8.55147 102.371 9.35062 99.8141 9.35062C97.2568 9.43054 95.179 8.79121 95.179 7.99206C95.179 7.19291 97.1768 6.39375 99.7341 6.39375C102.291 6.31384 104.369 6.95316 104.369 7.75231Z" fill="var(--fill-0, #D9F1FF)"/>
<path id="Vector_8" d="M21.2575 9.26947C21.2575 10.0686 19.2596 10.8678 16.7023 10.8678C14.145 10.8678 11.9873 10.3883 11.9873 9.50921C11.9873 8.71006 13.9852 7.9109 16.5425 7.9109C19.0998 7.83099 21.2575 8.47031 21.2575 9.26947Z" fill="var(--fill-0, #D9F1FF)"/>
<path id="Vector_9" fill-rule="evenodd" clip-rule="evenodd" d="M60.0167 40.1172C60.0167 41.236 59.0577 42.195 57.9389 42.195C56.8201 42.195 55.8611 41.236 55.8611 40.1172C55.8611 38.9984 56.8201 38.0394 57.9389 38.0394C59.0577 38.0394 60.0167 38.9185 60.0167 40.1172Z" fill="var(--fill-0, white)"/>
<path id="Vector_10" fill-rule="evenodd" clip-rule="evenodd" d="M109.084 55.2215C109.084 56.3404 108.125 57.2993 107.007 57.2993C105.888 57.2993 104.929 56.3404 104.929 55.2215C104.929 54.1027 105.888 53.1437 107.007 53.1437C108.125 53.1437 109.084 54.1027 109.084 55.2215Z" fill="var(--fill-0, white)"/>
<path id="Vector_11" fill-rule="evenodd" clip-rule="evenodd" d="M92.6217 0C92.6217 0.559408 92.1422 1.0389 91.5828 1.0389C91.0234 1.0389 90.5439 0.559408 90.5439 0" fill="var(--fill-0, white)"/>
<path id="Vector_12" fill-rule="evenodd" clip-rule="evenodd" d="M2.0778 18.6999C2.0778 19.2593 1.59831 19.7388 1.0389 19.7388C0.479492 19.7388 0 19.2593 0 18.6999C0 18.1405 0.479492 17.661 1.0389 17.661C1.59831 17.661 2.0778 18.1405 2.0778 18.6999Z" fill="var(--fill-0, white)"/>
<path id="Vector_13" fill-rule="evenodd" clip-rule="evenodd" d="M151.2 22.0573C151.2 22.6167 150.72 23.0962 150.161 23.0962C149.601 23.0962 149.122 22.6167 149.122 22.0573C149.122 21.4979 149.601 21.0184 150.161 21.0184C150.72 21.0184 151.2 21.4979 151.2 22.0573Z" fill="var(--fill-0, white)"/>
<path id="Vector_14" fill-rule="evenodd" clip-rule="evenodd" d="M14.3852 49.2285C14.3852 49.7879 13.9057 50.2674 13.3463 50.2674C12.7869 50.2674 12.3074 49.7879 12.3074 49.2285C12.3074 48.6691 12.7869 48.1896 13.3463 48.1896C13.9057 48.1896 14.3852 48.6691 14.3852 49.2285Z" fill="var(--fill-0, white)"/>
<path id="Vector_15" fill-rule="evenodd" clip-rule="evenodd" d="M120.273 20.7774C120.273 21.3368 119.793 21.8163 119.234 21.8163C118.675 21.8163 118.195 21.3368 118.195 20.7774C118.195 20.218 118.675 19.7385 119.234 19.7385C119.793 19.7385 120.273 20.218 120.273 20.7774Z" fill="var(--fill-0, white)"/>
<path id="Vector_16" fill-rule="evenodd" clip-rule="evenodd" d="M28.4499 69.0466C28.4499 69.606 27.9704 70.0855 27.411 70.0855C26.8516 70.0855 26.3721 69.606 26.3721 69.0466C26.3721 68.4872 26.8516 68.0077 27.411 68.0077C27.9704 68.0077 28.4499 68.4872 28.4499 69.0466Z" fill="var(--fill-0, white)"/>
</g>
</svg>
