<svg preserveAspectRatio="none" width="100%" height="100%" overflow="visible" style="display: block;" viewBox="0 0 338 69" fill="none" xmlns="http://www.w3.org/2000/svg">
<g id="Frame">
<path id="Vector" d="M331.752 18.9886C327.576 14.6548 321.667 12.3698 315.757 11.2667C296.61 7.79969 277.227 15.5216 257.843 15.4428C242.714 15.364 228.216 10.0847 213.245 9.218C198.353 8.35126 184.327 15.364 169.435 15.2064C156.986 15.0488 144.772 9.84836 132.323 11.0303C122.08 12.0546 113.255 16.3883 102.775 14.0245C97.732 12.8426 92.7679 11.1091 87.6463 10.5575C76.615 9.37559 66.0565 13.7881 55.2616 14.97C44.4667 16.1519 33.4355 15.5216 22.9558 12.6062C17.9917 11.1879 12.4761 10.3211 7.82717 12.685C7.03922 13.0789 6.25128 13.6305 5.54212 14.1821C1.12962 18.1218 -0.603869 33.9596 0.184078 39.6328C0.499258 41.839 1.99636 50.3489 5.9361 47.7486C7.51199 46.7243 8.29994 44.7544 8.61512 42.9422C9.16668 40.4207 9.79704 33.9596 12.87 33.9596C16.8886 34.0384 19.5676 39.554 23.8225 38.6084C27.4471 37.8205 31.308 36.1658 35.0902 37.5053C40.133 39.3964 41.4725 45.2272 45.0971 48.6154C49.9824 53.1067 55.9708 32.5413 62.4319 39.0812C64.7958 41.4451 64.4018 44.912 64.323 47.985C64.2442 50.6641 64.5594 55.7069 68.1052 56.2585C69.2083 56.4161 70.3902 55.9433 71.0206 55.0766C74.9603 49.9549 69.3659 42.7846 73.4632 37.8205C77.6393 32.6988 85.834 36.1658 91.0344 37.2689C95.053 38.1357 98.126 37.6629 102.145 37.6629C104.036 37.6629 104.745 38.8448 104.666 40.6571C104.508 44.9908 102.381 50.7428 104.981 54.7614C105.69 55.9433 106.951 56.7312 108.369 56.4161C109.788 56.1797 110.733 54.919 111.127 53.6583C111.915 50.5853 110.733 47.0395 110.654 43.8877C110.576 40.4207 110.182 35.2203 115.224 35.9294C117.982 36.3234 120.504 37.6629 123.183 38.4509C128.462 40.0268 134.45 35.9294 140.045 34.1959C143.039 33.2504 146.112 35.3779 146.27 38.5297C146.427 41.839 146.27 46.4091 145.403 52.7127C143.197 68.3141 154.779 67.5261 153.755 60.1982C153.125 55.6281 153.282 47.2759 153.519 41.7602C153.755 42.3118 154.07 42.8634 154.307 43.4149C157.852 49.7185 164.471 47.0395 167.623 41.9966C170.144 38.0569 171.484 33.014 177 33.6444C183.697 34.3535 189.922 37.4265 196.619 37.7417C202.844 38.0569 208.281 34.9839 214.348 34.1171C220.021 33.2504 226.01 33.8808 231.447 35.9294C236.49 37.8205 241.375 41.3663 247.048 40.7359C248.545 40.5783 250.751 39.16 252.17 40.3419C253.667 41.6814 252.564 45.0696 252.249 46.6455C251.933 48.6154 251.933 50.7428 252.406 52.7127C252.643 53.737 253.037 54.8402 253.746 55.6281C254.455 56.4161 255.716 56.81 256.661 56.4161C257.843 55.9433 258.316 54.525 258.552 53.1855C259.261 48.5366 259.104 45.5424 259.104 40.8147C259.104 39.7904 259.182 38.6872 259.97 37.9781C260.601 37.4265 261.625 37.3477 262.492 37.4265C266.904 37.5841 270.056 37.2689 274.075 39.0812C275.887 39.948 277.148 41.6814 277.148 43.7301C277.227 46.8031 276.99 50.9004 276.281 56.2585C274.154 71.4659 285.421 70.6779 284.397 63.5864C283.845 59.6467 283.924 52.7915 284.082 47.5123C284.16 45.3848 285.973 43.7301 288.1 43.8877H288.179C293.458 44.2817 298.659 35.3779 303.938 36.481C309.296 37.5841 314.89 44.912 319.303 41.6814C320.879 40.5783 321.903 38.6872 323.637 37.8205C325.213 36.9538 326.237 37.8993 326.71 39.4752C328.286 44.8332 329.546 50.4277 329.783 56.0221C329.783 56.5737 329.94 57.204 330.334 57.6768C331.989 59.6467 334.668 57.0464 335.535 54.6826C339.159 44.1241 339.474 27.1044 331.752 18.9886Z" fill="var(--fill-0, white)"/>
<path id="Vector_2" d="M71.1774 47.4324C70.4682 48.2991 69.3651 48.7719 68.262 48.6143C64.7162 48.0627 64.401 43.0987 64.4798 40.3408C64.5586 37.2678 64.9526 33.8009 62.5887 31.437C56.1276 24.8183 50.1392 45.4625 45.2539 40.9712C41.5505 37.583 40.211 31.7522 35.2469 29.8611C31.5436 28.4428 27.6826 30.0975 23.9793 30.9643C19.7244 31.9098 17.0454 26.3942 13.0268 26.3154C9.95382 26.2366 9.24467 32.7765 8.7719 35.298C8.37793 37.0315 7.66878 39.0801 6.09288 40.1045C2.23194 42.6259 0.656042 34.3524 0.340862 32.0674C0.104478 35.1404 0.104478 37.8982 0.340862 39.7105C0.656042 41.9167 2.15314 50.4266 6.09288 47.8263C7.66878 46.802 8.45672 44.8321 8.7719 43.0199C9.32347 40.4984 9.95382 34.0373 13.0268 34.0373C17.0454 34.1161 19.7244 39.6317 23.9793 38.6861C27.6039 37.8982 31.4648 36.2435 35.2469 37.583C40.2898 39.4741 41.6293 45.3049 45.2539 48.6931C50.1392 53.1844 56.1276 32.619 62.5887 39.1589C64.9526 41.5228 64.5586 44.9897 64.4798 48.0627C64.401 50.7418 64.7162 55.7846 68.262 56.3362C69.3651 56.4938 70.547 56.021 71.1774 55.1543C73.3836 52.3176 72.5957 48.8507 72.2017 45.5413C71.9653 46.1717 71.6501 46.802 71.1774 47.4324Z" fill="var(--fill-0, #D9F1FF)"/>
<path id="Vector_3" d="M146.348 30.8854C146.19 27.7336 143.117 25.6062 140.123 26.5517C134.529 28.2852 128.54 32.3825 123.261 30.8066C120.582 30.0187 118.06 28.6792 115.303 28.2852C110.26 27.4972 110.654 32.7765 110.733 36.2435C110.733 37.1102 110.811 38.0557 110.969 38.9225C111.442 36.9526 112.545 35.5343 115.303 36.0071C118.06 36.4011 120.582 37.7406 123.261 38.5285C128.54 40.1044 134.529 36.0071 140.123 34.2736C142.881 33.4069 145.717 35.1403 146.269 37.8194C146.427 35.0615 146.427 32.7765 146.348 30.8854Z" fill="var(--fill-0, #D9F1FF)"/>
<path id="Vector_4" d="M153.439 55.4716C151.941 58.6234 146.899 58.4658 145.559 52.2411C145.559 52.3986 145.48 52.5562 145.48 52.7138C143.274 68.3152 154.857 67.5272 153.833 60.1993C153.596 58.9386 153.517 57.2839 153.439 55.4716Z" fill="var(--fill-0, #D9F1FF)"/>
<path id="Vector_5" d="M104.744 32.935C104.823 31.1227 104.114 29.9408 102.223 29.9408C98.2828 29.9408 95.131 30.4136 91.1125 29.5468C85.912 28.4437 77.6386 24.9767 73.5412 30.0984C71.2562 32.935 71.9653 36.402 72.3593 39.869C72.5957 39.1598 72.9897 38.4506 73.5412 37.8203C77.7173 32.6986 85.912 36.1656 91.1125 37.2687C95.131 38.1355 98.204 37.6627 102.223 37.6627C103.089 37.6627 103.72 37.8991 104.114 38.2931C104.35 36.4808 104.744 34.5897 104.744 32.935Z" fill="var(--fill-0, #D9F1FF)"/>
<path id="Vector_6" d="M108.447 48.7724C107.029 49.0087 105.768 48.2208 105.059 47.1177C104.665 46.5661 104.429 45.9357 104.271 45.3054C103.798 48.6148 103.404 52.1605 105.059 54.8396C105.768 56.0215 107.029 56.8094 108.447 56.4942C109.866 56.2579 110.811 54.9971 111.205 53.7364C111.757 51.5302 111.284 49.0087 110.969 46.6449C110.496 47.6692 109.629 48.536 108.447 48.7724Z" fill="var(--fill-0, #D9F1FF)"/>
<path id="Vector_7" d="M284.002 58.7801C282.505 61.8531 277.699 61.6956 276.359 55.6284C276.359 55.8647 276.28 56.0223 276.28 56.2587C274.153 71.4661 285.42 70.6782 284.396 63.5866C284.16 62.2471 284.081 60.5924 284.002 58.7801Z" fill="var(--fill-0, #D9F1FF)"/>
<path id="Vector_8" d="M335.376 46.8817C334.509 49.1668 331.83 51.8458 330.175 49.8759C329.782 49.4031 329.624 48.8516 329.624 48.2212C329.466 42.6268 328.127 37.0324 326.551 31.6743C326.078 30.0984 325.054 29.2317 323.478 30.0196C321.744 30.9652 320.72 32.7774 319.144 33.8806C314.732 37.0324 309.137 29.7044 303.779 28.6801C298.5 27.577 293.378 36.4808 288.02 36.0868H287.941C285.814 35.9292 284.002 37.5839 283.923 39.7114C283.844 42.942 283.765 46.7241 283.844 50.1123C283.844 49.1668 283.923 48.3 283.923 47.4333C284.002 45.3058 285.814 43.6511 287.941 43.8087H288.02C293.3 44.2027 298.5 35.2989 303.779 36.402C309.137 37.5051 314.732 44.833 319.144 41.6025C320.72 40.4993 321.744 38.6083 323.478 37.7415C325.054 36.8748 326.078 37.8203 326.551 39.3962C328.127 44.7542 329.388 50.3487 329.624 55.9431C329.624 56.4947 329.782 57.125 330.175 57.5978C331.83 59.5677 334.509 56.9674 335.376 54.6036C337.346 49.088 338.37 41.8388 337.819 34.9837C337.503 39.3174 336.637 43.4935 335.376 46.8817Z" fill="var(--fill-0, #D9F1FF)"/>
<path id="Vector_9" d="M277.147 36.0091C277.068 33.9605 275.886 32.1482 274.074 31.3602C270.056 29.5479 266.904 29.8631 262.491 29.7055C261.625 29.7055 260.679 29.7055 259.97 30.2571C259.182 30.8875 259.103 32.0694 259.103 33.0937C259.103 37.7426 259.261 40.8156 258.552 45.4645C258.394 46.7252 257.921 48.1435 256.66 48.6951C255.636 49.089 254.454 48.6951 253.745 47.9071C253.115 47.198 252.721 46.3312 252.484 45.3857C252.406 45.8585 252.248 46.3312 252.248 46.6464C251.933 48.6163 251.933 50.7437 252.406 52.7136C252.642 53.7379 253.036 54.8411 253.745 55.629C254.454 56.417 255.715 56.8109 256.66 56.417C257.842 55.9442 258.315 54.5259 258.552 53.1864C259.261 48.5375 259.103 45.5433 259.103 40.8156C259.103 39.7913 259.182 38.6881 259.97 37.979C260.6 37.4274 261.625 37.3486 262.491 37.4274C266.904 37.585 270.056 37.2698 274.074 39.0821C275.492 39.7125 276.517 40.9732 276.99 42.4703C277.147 39.9489 277.147 37.8214 277.147 36.0091Z" fill="var(--fill-0, #D9F1FF)"/>
<path id="Vector_10" d="M252.248 38.924C252.484 37.3481 253.587 33.9599 252.169 32.6204C250.751 31.3597 248.545 32.778 247.047 33.0144C241.453 33.6448 236.489 30.1778 231.446 28.2079C226.088 26.1592 220.1 25.6077 214.348 26.3956C208.28 27.2624 202.844 30.3354 196.619 30.0202C189.921 29.705 183.618 26.632 176.999 25.9229C171.483 25.2925 170.144 30.3354 167.622 34.2751C164.471 39.318 157.852 41.997 154.306 35.6934C153.991 35.1418 153.754 34.5903 153.518 34.0387C153.36 37.6633 153.282 42.391 153.361 46.5671C153.361 44.8336 153.439 43.1789 153.518 41.7606C153.754 42.3122 154.07 42.8637 154.306 43.4153C157.852 49.7189 164.471 47.0399 167.622 41.997C170.144 38.0573 171.483 33.0144 176.999 33.6448C183.696 34.3539 189.921 37.4269 196.619 37.7421C202.844 38.0573 208.28 34.9843 214.348 34.1175C220.021 33.2508 226.009 33.8811 231.446 35.9298C236.489 37.8209 241.374 41.3666 247.047 40.7363C248.545 40.5787 250.751 39.1604 252.09 40.3423C252.09 39.8695 252.169 39.3968 252.248 38.924Z" fill="var(--fill-0, #D9F1FF)"/>
<path id="Vector_11" d="M111.206 50.981C110.89 52.3205 109.866 53.5025 108.448 53.7388C107.03 53.9752 105.769 53.1873 105.06 52.0842C104.351 50.981 104.035 49.6415 103.878 48.302C103.72 50.6658 103.878 52.9509 105.06 54.7632C105.769 55.9451 107.03 56.733 108.448 56.4179C109.866 56.1815 110.812 54.9208 111.206 53.66C111.521 52.3993 111.521 51.1386 111.442 49.7991C111.363 50.1931 111.284 50.587 111.206 50.981Z" fill="var(--fill-0, #B4DCFF)"/>
<path id="Vector_12" d="M146.348 39.7131C146.348 38.2948 146.348 36.9553 146.269 35.8521C146.111 32.7003 143.038 30.5729 140.044 31.5184C134.45 33.2519 128.461 37.3492 123.182 35.7733C120.503 34.9854 117.982 33.6459 115.224 33.2519C110.339 32.464 110.575 37.5068 110.654 40.9738C110.811 38.1372 111.521 35.4582 115.224 36.0097C117.982 36.4037 120.503 37.7432 123.182 38.5312C128.461 40.107 134.45 36.0097 140.044 34.2762C143.038 33.3307 146.111 35.4582 146.269 38.6099C146.348 38.9251 146.348 39.3191 146.348 39.7131Z" fill="var(--fill-0, #B4DCFF)"/>
<path id="Vector_13" d="M104.665 39.397C104.744 38.9243 104.744 38.3727 104.744 37.8999C104.823 36.0876 104.114 34.9057 102.223 34.9057C98.2828 34.9057 95.131 35.3785 91.1125 34.5117C85.9121 33.4086 77.6386 29.9416 73.5413 35.0633C71.9654 36.9544 71.8078 39.2394 72.0442 41.6033C72.2018 40.2638 72.5957 39.003 73.5413 37.8211C77.7174 32.6995 85.9121 36.1664 91.1125 37.2696C95.131 38.1363 98.204 37.6635 102.223 37.6635C103.72 37.6635 104.429 38.2939 104.665 39.397Z" fill="var(--fill-0, #B4DCFF)"/>
<path id="Vector_14" d="M71.1777 52.3985C70.4685 53.2652 69.3654 53.738 68.2623 53.5804C65.4256 53.1864 64.6377 49.7982 64.4801 47.1192C64.4801 47.4344 64.4801 47.7496 64.4801 48.0647C64.4013 50.7438 64.7165 55.7866 68.2623 56.3382C69.3654 56.4958 70.5473 56.023 71.1777 55.1563C72.6748 53.2652 72.7536 51.0589 72.596 48.7739C72.4384 50.0346 72.0444 51.2953 71.1777 52.3985Z" fill="var(--fill-0, #B4DCFF)"/>
<path id="Vector_15" d="M62.5101 36.4037C56.0489 29.785 50.0605 50.4292 45.1752 45.9379C41.4719 42.5497 40.1324 36.7189 35.1683 34.8278C31.465 33.4095 27.604 35.0642 23.9007 35.931C19.6457 36.8765 16.9667 31.3609 12.9482 31.2821C9.87519 31.2033 9.16604 37.7432 8.69327 40.2647C8.2993 41.9982 7.59014 44.0468 6.01425 45.0712C2.07451 47.6714 0.577411 39.1616 0.262232 36.9553C0.183437 36.4037 0.104642 35.6946 0.104642 34.9854C0.0258473 36.8765 0.104642 38.5312 0.262232 39.7131C0.577411 41.9194 2.07451 50.4292 6.01425 47.829C7.59014 46.8046 8.37809 44.8348 8.69327 43.0225C9.24483 40.5011 9.87519 34.0399 12.9482 34.0399C16.9667 34.1187 19.6457 39.6343 23.9007 38.6888C27.5252 37.9008 31.3862 36.2461 35.1683 37.5857C40.2112 39.4767 41.5507 45.3075 45.1752 48.6957C50.0605 53.187 56.0489 32.6216 62.5101 39.1616C63.9284 40.5799 64.3224 42.3921 64.48 44.2832C64.5588 41.4466 64.5588 38.5312 62.5101 36.4037Z" fill="var(--fill-0, #B4DCFF)"/>
<path id="Vector_16" d="M252.721 41.4462C252.957 40.0279 253.036 38.452 252.09 37.6641C250.672 36.4033 248.466 37.8216 246.969 38.058C241.374 38.6884 236.41 35.2214 231.367 33.2516C226.009 31.2029 220.021 30.6513 214.269 31.4393C208.202 32.306 202.765 35.379 196.54 35.0638C189.842 34.7487 183.539 31.6757 176.92 30.9665C171.405 30.3361 170.065 35.379 167.544 39.3188C164.392 44.3616 157.773 47.0406 154.227 40.7371C153.912 40.1855 153.676 39.6339 153.439 39.0824C153.361 42.0766 153.203 45.7799 153.282 49.4045C153.282 46.7255 153.361 44.0464 153.439 41.8402C153.676 42.3917 153.991 42.9433 154.227 43.4949C157.773 49.7985 164.392 47.1194 167.544 42.0766C170.065 38.1368 171.405 33.094 176.92 33.7243C183.618 34.4335 189.842 37.5065 196.54 37.8217C202.765 38.1368 208.202 35.0638 214.269 34.1971C219.942 33.3303 225.931 33.9607 231.367 36.0094C236.41 37.9004 241.295 41.4462 246.969 40.8159C248.466 40.6583 250.672 39.24 252.09 40.4219C252.406 40.6583 252.642 40.9734 252.721 41.4462Z" fill="var(--fill-0, #B4DCFF)"/>
<path id="Vector_17" d="M284.318 62.8782C283.294 67.1331 276.675 67.1331 276.044 58.4657C275.256 71.2305 285.342 70.2061 284.397 63.5086C284.318 63.351 284.318 63.1146 284.318 62.8782Z" fill="var(--fill-0, #B4DCFF)"/>
<path id="Vector_18" d="M335.376 51.8466C334.51 54.1317 331.831 56.8107 330.176 54.8408C329.782 54.368 329.624 53.8165 329.624 53.1861C329.467 47.5917 328.127 41.9973 326.551 36.6392C326.079 35.0633 325.054 34.1966 323.478 34.9845C321.745 35.9301 320.721 37.7423 319.145 38.8455C314.732 41.9973 309.138 34.6694 303.78 33.645C298.5 32.5419 293.379 41.4457 288.021 41.0517H287.942C285.815 40.8941 284.002 42.5488 283.923 44.6763C283.845 47.1977 283.766 50.0343 283.845 52.7921C283.845 50.9011 283.923 49.0888 283.923 47.4341C284.002 45.3066 285.815 43.652 287.942 43.8095H288.021C293.3 44.2035 298.5 35.2997 303.78 36.4028C309.138 37.506 314.732 44.8339 319.145 41.6033C320.721 40.5002 321.745 38.6091 323.478 37.7423C325.054 36.8756 326.079 37.8211 326.551 39.397C328.127 44.7551 329.388 50.3495 329.624 55.9439C329.624 56.4955 329.782 57.1259 330.176 57.5986C331.831 59.5685 334.51 56.9683 335.376 54.6044C337.11 49.798 338.134 43.5732 337.977 37.4272C337.819 42.6276 336.874 47.7493 335.376 51.8466Z" fill="var(--fill-0, #B4DCFF)"/>
<path id="Vector_19" d="M277.147 41.0528C277.068 39.0041 275.886 37.1918 274.074 36.4039C270.056 34.5916 266.904 34.9068 262.491 34.7492C261.624 34.7492 260.679 34.7492 259.97 35.3007C259.182 35.9311 259.103 37.113 259.103 38.1374C259.103 38.9253 259.103 39.6345 259.103 40.2648C259.182 39.3981 259.339 38.6101 259.97 38.0586C260.6 37.507 261.624 37.4282 262.491 37.507C266.904 37.6646 270.056 37.3494 274.074 39.1617C275.886 39.9496 277.068 41.7619 277.147 43.7318C277.147 42.7074 277.147 41.8407 277.147 41.0528Z" fill="var(--fill-0, #B4DCFF)"/>
<path id="Vector_20" d="M258.551 50.4296C258.393 51.6904 257.921 53.1087 256.66 53.6602C255.636 54.0542 254.454 53.6602 253.744 52.8723C253.035 52.0843 252.641 51.06 252.405 49.9569C252.247 49.2477 252.169 48.5386 252.09 47.8294C251.932 49.4841 252.011 51.06 252.405 52.7147C252.641 53.739 253.035 54.8421 253.744 55.6301C254.454 56.418 255.714 56.812 256.66 56.418C257.842 55.9453 258.315 54.527 258.551 53.1875C259.103 49.4841 259.102 46.8051 259.102 43.4957C259.024 45.6232 258.945 47.8294 258.551 50.4296Z" fill="var(--fill-0, #B4DCFF)"/>
<path id="Vector_21" d="M153.754 59.6466C152.73 64.0591 145.875 64.0591 145.245 55.1553C144.457 68.2353 154.779 67.2109 153.833 60.277C153.754 60.0406 153.754 59.8042 153.754 59.6466Z" fill="var(--fill-0, #B4DCFF)"/>
<path id="Vector_22" d="M316.624 15.9957C316.545 17.4928 312.842 18.5171 308.35 18.3595C303.859 18.2019 300.234 16.8624 300.234 15.4441C300.313 13.947 304.017 12.9227 308.508 13.0803C313.078 13.2379 316.624 14.5774 316.624 15.9957Z" fill="var(--fill-0, #D9F1FF)"/>
<path id="Vector_23" d="M220.809 14.183C220.73 15.6801 217.027 16.7045 212.536 16.5469C208.044 16.3893 204.42 15.0498 204.42 13.6315C204.499 12.1344 208.202 11.11 212.693 11.2676C217.263 11.4252 220.888 12.7647 220.809 14.183Z" fill="var(--fill-0, #D9F1FF)"/>
<path id="Vector_24" d="M91.1913 15.0494C91.1125 16.2313 88.1971 17.0981 84.5725 16.9405C80.9479 16.7829 78.1113 15.7586 78.1113 14.5766C78.1901 13.3947 81.1055 12.528 84.7301 12.6856C88.3546 12.8432 91.1913 13.8675 91.1913 15.0494Z" fill="var(--fill-0, #D9F1FF)"/>
<path id="Vector_25" d="M76.5366 14.7334C76.6942 15.6002 74.7243 16.7033 72.2029 17.1761C69.6027 17.7276 67.3964 17.4913 67.2388 16.6245C67.0812 15.7578 69.0511 14.6546 71.5725 14.1819C74.094 13.7091 76.3002 13.9455 76.5366 14.7334Z" fill="var(--fill-0, #D9F1FF)"/>
<path id="Vector_26" d="M16.3364 13.8678C16.494 14.7346 14.5241 15.8377 12.0027 16.3105C9.40247 16.862 7.19621 16.6257 7.03862 15.7589C6.88103 14.8922 8.8509 13.789 11.3723 13.3163C13.9726 12.7647 16.1788 13.0011 16.3364 13.8678Z" fill="var(--fill-0, #D9F1FF)"/>
<path id="Vector_27" d="M202.213 14.1053C202.371 15.2084 199.849 16.4691 196.54 17.0207C193.231 17.5722 190.394 17.0995 190.236 16.0751C190.079 14.972 192.6 13.7113 195.91 13.1597C199.219 12.6082 202.056 13.0021 202.213 14.1053Z" fill="var(--fill-0, #D9F1FF)"/>
<path id="Vector_28" fill-rule="evenodd" clip-rule="evenodd" d="M36.7448 29.4692C36.7448 30.5723 35.7993 31.5179 34.6961 31.5179C33.593 31.5179 32.6475 30.5723 32.6475 29.4692C32.6475 28.3661 33.593 27.4205 34.6961 27.4205C35.7993 27.4205 36.7448 28.2873 36.7448 29.4692Z" fill="var(--fill-0, white)"/>
<path id="Vector_29" fill-rule="evenodd" clip-rule="evenodd" d="M226.009 2.04866C226.009 3.15179 225.064 4.09733 223.961 4.09733C222.858 4.09733 221.912 3.15179 221.912 2.04866C221.912 0.945537 222.858 0 223.961 0C225.143 0 226.009 0.945537 226.009 2.04866Z" fill="var(--fill-0, white)"/>
<path id="Vector_30" fill-rule="evenodd" clip-rule="evenodd" d="M333.013 39.003C333.013 40.1062 332.067 41.0517 330.964 41.0517C329.861 41.0517 328.916 40.1062 328.916 39.003C328.916 37.8999 329.861 36.9544 330.964 36.9544C332.067 36.9544 333.013 37.8999 333.013 39.003Z" fill="var(--fill-0, white)"/>
<path id="Vector_31" fill-rule="evenodd" clip-rule="evenodd" d="M274.468 42.0772C274.468 43.1803 273.522 44.1259 272.419 44.1259C271.316 44.1259 270.371 43.1803 270.371 42.0772C270.371 40.9741 271.316 40.0285 272.419 40.0285C273.522 40.1073 274.468 40.9741 274.468 42.0772Z" fill="var(--fill-0, white)"/>
<path id="Vector_32" fill-rule="evenodd" clip-rule="evenodd" d="M183.145 34.9054C183.145 36.0085 182.199 36.954 181.096 36.954C179.993 36.954 179.047 36.0085 179.047 34.9054C179.047 33.8022 179.993 32.8567 181.096 32.8567C182.278 32.8567 183.145 33.8022 183.145 34.9054Z" fill="var(--fill-0, white)"/>
<path id="Vector_33" fill-rule="evenodd" clip-rule="evenodd" d="M228.373 61.6183C228.373 62.1698 227.901 62.6426 227.349 62.6426C226.797 62.6426 226.325 62.1698 226.325 61.6183C226.325 61.0667 226.797 60.5939 227.349 60.5939C227.901 60.5939 228.373 61.0667 228.373 61.6183Z" fill="var(--fill-0, white)"/>
<path id="Vector_34" fill-rule="evenodd" clip-rule="evenodd" d="M130.983 43.1017C130.983 43.6533 130.51 44.126 129.958 44.126C129.407 44.126 128.934 43.6533 128.934 43.1017C128.934 42.5501 129.407 42.0774 129.958 42.0774C130.589 42.0774 130.983 42.5501 130.983 43.1017Z" fill="var(--fill-0, white)"/>
<path id="Vector_35" fill-rule="evenodd" clip-rule="evenodd" d="M159.27 13.7093C159.27 14.2608 158.798 14.7336 158.246 14.7336C157.694 14.7336 157.222 14.2608 157.222 13.7093C157.222 13.1577 157.694 12.6849 158.246 12.6849C158.798 12.6849 159.27 13.1577 159.27 13.7093Z" fill="var(--fill-0, white)"/>
<path id="Vector_36" fill-rule="evenodd" clip-rule="evenodd" d="M112.86 20.5662C112.86 21.1178 112.387 21.5905 111.835 21.5905C111.284 21.5905 110.811 21.1178 110.811 20.5662C110.811 20.0146 111.284 19.5419 111.835 19.5419C112.387 19.5419 112.86 20.0146 112.86 20.5662Z" fill="var(--fill-0, white)"/>
<path id="Vector_37" fill-rule="evenodd" clip-rule="evenodd" d="M78.1908 14.7346C78.1908 15.2862 77.718 15.7589 77.1664 15.7589C76.6149 15.7589 76.1421 15.2862 76.1421 14.7346C76.1421 14.183 76.6149 13.7103 77.1664 13.7103C77.718 13.7103 78.1908 14.183 78.1908 14.7346Z" fill="var(--fill-0, white)"/>
<path id="Vector_38" fill-rule="evenodd" clip-rule="evenodd" d="M88.119 44.1252C88.119 44.6768 87.6462 45.1496 87.0946 45.1496C86.5431 45.1496 86.0703 44.6768 86.0703 44.1252C86.0703 43.5737 86.5431 43.1009 87.0946 43.1009C87.6462 43.1009 88.119 43.5737 88.119 44.1252Z" fill="var(--fill-0, white)"/>
<path id="Vector_39" fill-rule="evenodd" clip-rule="evenodd" d="M238.696 26.396C238.696 26.9476 238.223 27.4203 237.671 27.4203C237.12 27.4203 236.647 26.9476 236.647 26.396C236.647 25.8444 237.12 25.3717 237.671 25.3717C238.223 25.3717 238.696 25.8444 238.696 26.396Z" fill="var(--fill-0, white)"/>
<path id="Vector_40" fill-rule="evenodd" clip-rule="evenodd" d="M298.579 14.7346C298.579 15.2862 298.106 15.7589 297.555 15.7589C297.003 15.7589 296.53 15.2862 296.53 14.7346C296.53 14.183 297.003 13.7103 297.555 13.7103C298.106 13.7103 298.579 14.183 298.579 14.7346Z" fill="var(--fill-0, white)"/>
</g>
</svg>
