<svg preserveAspectRatio="none" width="100%" height="100%" overflow="visible" style="display: block;" viewBox="0 0 145 41" fill="none" xmlns="http://www.w3.org/2000/svg">
<g id="Frame">
<path id="Vector" d="M3.77205 24.861C-0.111472 23.126 -1.26971 17.9212 1.59183 14.7289L1.65996 14.6595C3.49952 12.647 5.88414 11.3978 8.26876 10.1487C13.8556 7.23398 19.9193 4.18048 26.1875 5.15205C30.616 5.84603 34.7039 8.48314 39.1325 8.76073C44.6512 9.17711 49.8292 5.98482 55.3479 5.56844C61.3435 5.08265 67.271 7.85856 73.3348 7.37277C82.1919 6.6788 89.8908 -0.885544 98.6798 0.0860227C104.675 0.779999 109.785 5.36024 115.781 5.77663C120.21 6.05422 125.115 4.11108 128.862 6.54C131.724 8.41374 133.086 12.4388 136.425 13.1328C138.878 13.6186 141.739 12.0224 143.783 13.7574C144.873 14.7289 145.214 16.1863 144.873 17.6436C144.328 20.1419 142.352 21.7381 140.513 23.2648C136.766 26.2489 132.064 29.4412 127.636 27.7757C124.979 26.8041 122.662 24.167 119.937 24.9304C118.779 25.2774 117.825 26.1101 116.735 26.6653C114.623 27.7063 112.17 27.2899 109.853 27.2899C107.537 27.2899 104.812 28.1227 104.062 30.3434C103.449 32.0783 104.267 34.0215 104.744 35.8258C105.221 37.6995 104.88 40.2673 102.972 40.753C101.814 41.0306 100.656 40.4061 100.042 39.3651C98.4755 36.7974 99.7018 33.7439 98.8161 31.1068C98.0667 28.9554 95.9546 27.4981 93.7744 27.2205C92.4798 27.0817 91.1853 27.2899 89.8908 27.8451C87.8469 28.7472 85.5985 28.6778 83.4864 27.9839C82.6007 27.7063 81.7831 27.5675 80.8293 27.4981C78.5809 27.4287 76.1963 28.6778 75.5831 30.8292C75.1062 32.4253 75.4469 34.646 73.948 35.34C73.1985 35.687 72.3809 35.4788 71.7677 34.993C70.8139 34.1603 70.4051 32.9805 69.9282 31.8007C68.4293 28.0533 64.682 24.6528 60.8666 25.6938C57.3238 26.6653 54.8029 31.0374 51.26 30.274C48.3985 29.6494 47.0358 25.9713 44.1743 25.3468C40.4952 24.5834 37.6336 29.4412 33.8864 29.1636C32.5237 29.0248 31.3655 28.2615 30.071 27.7757C28.8446 27.2205 27.2776 27.0123 26.1875 27.9145C25.0973 28.8166 25.0973 30.4128 25.3699 31.8007C25.5743 32.5641 25.7787 33.3275 25.9831 34.0909C26.3237 35.687 25.8468 37.422 24.6886 38.6017C22.0995 41.2388 18.2842 39.0181 17.9435 36.1034C17.7391 34.7154 18.2842 33.2581 18.6248 31.8701C18.9655 30.4822 18.9655 28.8166 18.0116 27.7757C17.0578 26.7347 15.5589 26.6653 14.1281 26.5959C10.7896 26.4571 7.31491 26.3877 3.77205 24.861Z" fill="var(--fill-0, #D9F1FF)"/>
<path id="Vector_2" d="M134.721 20.2118C137.515 19.1014 140.104 17.5053 142.897 16.2561C143.578 15.9785 144.26 15.7009 144.941 15.4927C144.737 14.8682 144.396 14.2436 143.919 13.8272C141.875 12.0229 139.013 13.6884 136.561 13.2026C133.222 12.5086 131.86 8.48358 128.998 6.60984C125.251 4.18093 120.345 6.12406 115.917 5.84647C109.921 5.43008 104.811 0.84984 98.8156 0.155863C90.0266 -0.815704 82.3277 6.67924 73.4705 7.44262C67.4068 7.7896 61.4793 5.0137 55.4156 5.49948C49.8969 5.91587 44.7188 9.10816 39.2001 8.69177C34.7034 8.34478 30.6837 5.70767 26.2551 5.0831C20.0551 4.18093 13.9232 7.16502 8.33638 10.0797C5.95176 11.3289 3.49901 12.578 1.72758 14.5906L1.65945 14.66C1.18252 15.1458 0.841864 15.7703 0.569336 16.3255C2.06824 18.7544 4.79352 20.2812 7.58693 20.42C11.1298 20.5588 14.6045 18.4768 18.0792 19.1014C21.554 19.726 24.2111 22.9877 27.6858 23.2653C31.5694 23.6123 35.2485 20.2812 38.9958 21.3221C40.6991 21.8079 42.2661 23.1959 44.0375 22.8489C45.332 22.5713 46.4221 21.3915 47.7166 21.5997C49.2155 21.8773 49.7606 23.8899 51.1232 24.5144C52.6903 25.2084 54.3254 23.8899 55.7562 22.9877C60.0485 20.2812 66.1123 21.0445 69.5189 24.792C70.0639 25.3472 70.6771 25.833 71.4266 26.1106C73.5386 26.9433 74.2881 25.4166 75.3782 24.3756C77.4222 22.4325 80.5562 22.4325 83.4178 22.5713C87.0288 22.7795 90.6398 22.9877 94.2508 23.6123C96.8398 24.098 99.3606 24.792 102.018 24.7226C104.607 24.6532 107.4 23.6123 108.763 21.8773C109.649 20.6976 111.352 20.6976 112.783 20.9752C114.213 21.3221 115.644 21.8773 117.007 21.5303C118.574 21.1139 119.732 19.6566 121.299 19.379C122.934 19.1014 124.501 20.1424 126.068 20.767C128.726 21.8079 131.928 21.2527 134.721 20.2118Z" fill="var(--fill-0, white)"/>
<path id="Vector_3" opacity="0.5" d="M0.297363 20.905C0.842419 22.5705 2.00066 24.0972 3.77209 24.8606C7.24682 26.3874 10.7897 26.4568 14.3325 26.5956C15.6952 26.5956 17.2622 26.7344 18.2161 27.7753C19.1699 28.8163 19.1018 30.4818 18.8293 31.8698C18.4886 33.2577 18.0117 34.6457 18.1479 36.103C18.5567 39.0177 22.304 41.1691 24.893 38.6013C26.0512 37.4216 26.5282 35.756 26.1875 34.0905C25.9831 33.3271 25.7787 32.5638 25.5743 31.8004C25.3018 30.4124 25.3018 28.8163 26.3919 27.9141C27.4139 27.0119 28.9809 27.2895 30.2754 27.7753C31.5018 28.3305 32.7282 29.0939 34.0908 29.1633C37.8381 29.4409 40.6996 24.583 44.3787 25.3464C47.2403 25.971 48.6029 29.6491 51.4645 30.2736C55.0073 31.037 57.5963 26.665 61.0711 25.6934C64.8864 24.6524 68.6337 28.1223 70.1326 31.8004C70.6095 32.9107 70.9502 34.1599 71.9722 34.9927C72.5854 35.4785 73.4711 35.6866 74.1524 35.3397C75.6513 34.6457 75.3106 32.425 75.7876 30.8288C76.4007 28.6775 78.8535 27.4977 81.0337 27.4977C81.9194 27.4977 82.8051 27.7059 83.6909 27.9835C85.8029 28.6081 88.0513 28.6775 90.0953 27.8447C91.3898 27.2895 92.6843 27.0813 93.9788 27.2201C96.159 27.4977 98.3392 28.9551 99.0206 31.1064C99.9063 33.7435 98.6799 36.797 100.247 39.3647C100.86 40.4057 102.018 40.9609 103.177 40.7527C105.152 40.2669 105.425 37.7686 104.948 35.8254C104.471 34.0211 103.654 32.1474 104.267 30.343C105.016 28.1223 107.741 27.3589 110.058 27.2895C112.374 27.2895 114.827 27.7059 116.939 26.665C118.029 26.1098 118.915 25.2076 120.141 24.93C122.867 24.236 125.183 26.8037 127.84 27.7753C132.337 29.4409 136.97 26.2486 140.717 23.2645C142.284 22.0153 143.919 20.6274 144.737 18.7536C143.102 19.517 141.671 20.8356 139.9 21.2519C138.196 21.6683 136.289 21.2519 134.654 21.8765C131.996 22.8481 130.089 26.4568 126.887 24.236C126.478 23.9584 126.137 23.6115 125.796 23.2645C125.796 23.2645 125.796 23.2645 125.796 23.1951C124.366 21.6683 122.117 21.2519 120.346 22.2929C116.53 24.5136 111.489 24.5136 106.924 25.624C105.697 25.9016 104.403 26.318 103.449 27.2201C102.495 28.1223 101.95 29.5797 102.427 30.7594C102.632 31.2452 102.972 31.731 103.04 32.2168C103.04 32.7719 102.427 33.3271 102.018 32.9107C101.882 32.7719 101.814 32.5638 101.814 32.2862C101.201 28.6775 97.7942 26.1098 94.3194 25.277C91.7986 24.7218 87.4381 25.1382 85.1216 25.4158C84.1678 25.5546 83.2821 25.624 82.3282 25.624C79.9436 25.6934 75.0381 26.1792 73.6755 28.6775C73.4029 29.1633 73.1304 29.7184 72.5854 29.7878C71.904 29.9266 71.4271 29.2327 71.0183 28.6081C68.293 24.4442 62.9106 23.6809 58.0732 24.5136C56.5743 24.93 55.5524 25.5546 54.5304 26.3874C53.5765 27.2201 52.282 27.9141 51.1238 27.5671C50.4425 27.3589 49.8974 26.7344 49.3524 26.2486C46.6952 23.9584 42.8798 23.5421 39.4051 23.889C35.4534 24.236 31.5699 25.4158 27.6183 24.9994C27.0051 24.93 26.46 24.93 25.8468 25.0688C22.5084 25.971 23.0534 28.3999 23.1216 30.5512C23.1897 31.9392 22.5084 34.9927 21.4864 34.0905C20.1919 32.9801 22.0996 30.6206 21.8952 28.8857C21.7589 27.1507 21.0095 25.3464 19.6468 24.3054C17.8754 22.9175 15.4227 22.9869 13.1743 23.0563C10.1084 23.1257 6.97429 23.1951 3.97649 22.4317C2.75011 22.0153 1.52374 21.5295 0.297363 20.905Z" fill="var(--fill-0, #B4DCFF)"/>
</g>
</svg>
