<svg preserveAspectRatio="none" width="100%" height="100%" overflow="visible" style="display: block;" viewBox="0 0 36.9091 42" fill="none" xmlns="http://www.w3.org/2000/svg">
<g id="smallLogo.26f4d9cf.svg" clip-path="url(#clip0_107_289)">
<path id="Vector" d="M35.7574 34.1586C35.4203 34.0574 35.0275 34.1387 34.6785 34.7317L29.3394 34.7476L28.5857 36.836C28.5039 37.0623 28.3543 37.2581 28.1574 37.3964C27.9604 37.5348 27.7257 37.6092 27.4851 37.6095L28.5163 34.7497H27.7349L26.9832 36.834C26.901 37.0605 26.7511 37.2563 26.5538 37.3946C26.3565 37.533 26.1215 37.6073 25.8805 37.6076L26.9118 34.7516H26.1304L25.3867 36.836C25.3053 37.0627 25.1558 37.2587 24.9588 37.3972C24.7618 37.5357 24.5267 37.6099 24.2859 37.6095L25.3153 34.7575L19.5637 34.7735H15.6189C15.6898 34.505 15.8475 34.2678 16.0674 34.0984C16.2873 33.9291 16.5572 33.8372 16.8346 33.8372H19.8096L24.3712 17.715H16.329C14.2306 24.4067 12.1323 31.9611 10.0339 38.8272C9.67891 39.9855 10.5377 41.4056 11.7495 41.4235C19.179 41.5087 26.6084 41.3401 34.0399 41.4235C34.2459 41.4261 34.4471 41.3602 34.6116 41.236C34.776 41.1116 34.8945 40.9363 34.9482 40.7372L36.4059 35.3724C36.4759 35.1255 36.4473 34.861 36.3264 34.6347C36.2055 34.4083 36.0015 34.2376 35.7574 34.1586Z" fill="url(#paint0_linear_107_289)"/>
<path id="Vector_2" d="M29.4037 0.0178497V4.5179e-10H21.1551C20.972 -4.67188e-06 20.7906 0.036231 20.6215 0.10662C20.4525 0.177008 20.299 0.280158 20.1699 0.410127C20.0409 0.540096 19.9388 0.694315 19.8697 0.863898C19.8005 1.03348 19.7655 1.21508 19.7669 1.39823H23.8663C23.7721 1.65042 23.6051 1.86895 23.3866 2.02608C23.168 2.18321 22.9077 2.27187 22.6386 2.2808L21.0639 2.32642C20.3578 4.63101 19.6504 6.93561 18.9417 9.2402H26.7977L29.013 1.39823H29.2311C29.4061 1.4007 29.5759 1.33885 29.7083 1.22441C29.8405 1.10997 29.9263 0.950922 29.9491 0.777454C29.9687 0.605725 29.9237 0.432841 29.8229 0.292438C29.7221 0.152036 29.5727 0.0541585 29.4037 0.0178497Z" fill="url(#paint1_linear_107_289)"/>
<path id="Vector_3" d="M35.9929 11.9195L35.9749 11.7112C35.5407 6.85612 31.4114 3.17311 26.5345 3.17311H12.4212C11.8487 3.17278 11.29 3.34866 10.8209 3.67687C10.3519 4.00508 9.99517 4.46972 9.79933 5.00767C9.43043 5.90016 9.06021 6.79265 8.68867 7.68513H7.45902C7.03943 7.68562 6.62553 7.78222 6.24907 7.96753C5.87261 8.15282 5.54361 8.42192 5.2873 8.75414H12.2765C12.8893 8.75414 13.4963 8.77198 14.1011 8.78388C14.3104 8.78836 14.5162 8.83761 14.7048 8.92832C14.8936 9.01903 15.0606 9.14909 15.1947 9.30975C15.3289 9.47041 15.4271 9.65795 15.4827 9.85974C15.5383 10.0615 15.5501 10.2729 15.5172 10.4796L13.869 15.0015H13.0896L14.6604 10.6383H14.1725L12.5997 15.0015H11.6081L13.1828 10.6383C10.5847 10.5867 8.48241 10.5371 5.88428 10.4875C5.57755 10.482 5.2753 10.5618 5.01126 10.718C4.74721 10.8741 4.53174 11.1006 4.38887 11.3721C4.2656 11.6073 4.17486 11.8582 4.11914 12.1178C4.09867 12.2127 4.10108 12.311 4.12618 12.4047C4.15128 12.4984 4.19835 12.5848 4.26347 12.6568C4.32861 12.7287 4.40994 12.784 4.50072 12.8183C4.5915 12.8525 4.68913 12.8646 4.78553 12.8537H4.79942C4.94 12.8288 5.07273 12.7712 5.18681 12.6853C5.3009 12.5995 5.39308 12.488 5.45589 12.3598H9.97781C9.97939 12.4471 9.9636 12.5338 9.93133 12.615C9.89908 12.6961 9.85101 12.77 9.78992 12.8324C9.72883 12.8948 9.65594 12.9444 9.57549 12.9784C9.49505 13.0122 9.40866 13.0299 9.32134 13.0302H6.95725C3.6848 22.7602 1.38814 29.7672 0.438133 31.9309C-0.511871 34.0948 0.297318 34.9992 0.991474 35.3403C1.29158 35.4841 1.6206 35.5575 1.95337 35.5545H7.91915L11.8858 23.9621H10.7097C10.4046 23.9621 10.112 23.8409 9.89626 23.6251C9.68053 23.4094 9.55934 23.1169 9.55934 22.8117H16.2213C19.0434 26.7784 21.8657 30.8005 24.688 34.7731C27.4012 34.7731 30.1143 34.7315 32.8196 34.7315L23.4048 22.07L26.5166 22.1553C28.7765 22.1643 30.9651 21.3639 32.6858 19.8988C34.4067 18.4338 35.546 16.401 35.8977 14.1685C36.0118 13.4246 36.0438 12.6704 35.9929 11.9195ZM12.0365 16.5605H11.1242L11.5704 15.3268H12.4807L12.0365 16.5605ZM13.3038 16.5605H12.6136L13.0559 15.3347H13.75L13.3038 16.5605ZM17.3795 16.5605C16.491 16.5605 15.4067 16.5605 14.1269 16.5605L14.5712 15.3407H17.8217L17.3795 16.5605ZM14.6921 15.0015L16.2292 10.7811C17.55 10.7989 18.6448 10.8069 19.454 10.8088L17.9407 15.0015H14.6921ZM18.9384 16.5684H18.5239H18.2006L18.6429 15.3308H19.3826L18.9384 16.5684ZM18.7619 15.0015L20.2752 10.8108H21.0228L19.5016 15.0015H18.7619ZM23.0439 15.8246C21.9173 16.3939 20.8622 16.5346 19.7615 16.5624L20.2057 15.3308C20.9047 15.3678 21.6051 15.3678 22.304 15.3308C23.3453 15.2772 23.8173 15.1701 24.2873 14.9202C24.4846 14.8139 24.6702 14.6869 24.8407 14.5414C24.3133 15.0613 23.7068 15.4944 23.0439 15.8246ZM25.3465 13.4446C25.1481 14.1567 24.4241 14.4959 24.0315 14.6782C23.504 14.9202 23.0398 14.9539 22.1414 15.0055C21.5365 15.0425 20.9297 15.0425 20.3247 15.0055L21.832 10.8267C22.0304 10.791 23.6625 10.5451 24.688 11.6359C24.8268 11.7787 25.5844 12.574 25.3465 13.4406V13.4446Z" fill="url(#paint2_linear_107_289)"/>
<path id="Vector_4" d="M14.1949 11.955L14.6668 10.646H14.173L13.4233 12.7265L14.1949 11.955Z" fill="url(#paint3_linear_107_289)"/>
<path id="Vector_5" d="M15.0341 9.14484C15.2207 9.30843 15.3628 9.51668 15.4471 9.7501C15.5313 9.98353 15.5551 10.2345 15.5161 10.4796L15.4308 10.7097L22.9811 3.17311H21.0216L15.0341 9.14484Z" fill="url(#paint4_linear_107_289)"/>
<path id="Vector_6" d="M11.8685 14.2799L12.9812 11.1997L4.8496 19.3313C4.50319 20.3678 4.17264 21.355 3.85795 22.2923L11.8685 14.2799Z" fill="url(#paint5_linear_107_289)"/>
<path id="Vector_7" d="M32.2209 5.04368L25.0988 12.1657C25.2232 12.3509 25.3092 12.5592 25.3518 12.7783C25.3945 12.9973 25.3927 13.2226 25.3467 13.441C25.1483 14.153 24.4244 14.4922 24.0318 14.6745C23.5299 14.9047 23.0877 14.9463 22.2687 14.9959L21.9175 15.349L22.3043 15.331C23.3455 15.2776 23.8176 15.1704 24.2876 14.9206C24.485 14.8142 24.6704 14.6871 24.841 14.5417C24.3171 15.0606 23.7147 15.4937 23.056 15.825C22.3444 16.1839 21.5736 16.4109 20.7811 16.4953L14.4525 22.8082H16.2215C16.6288 23.3794 17.0347 23.9518 17.4393 24.5257L34.4956 7.46925C33.886 6.53325 33.1159 5.71214 32.2209 5.04368Z" fill="url(#paint6_linear_107_289)"/>
<path id="Vector_8" d="M11.1428 26.1201L1.72017 35.5428C1.79727 35.5507 1.87471 35.5547 1.95221 35.5547H6.41266L8.69941 33.2659L11.1428 26.1201Z" fill="url(#paint7_linear_107_289)"/>
<path id="Vector_9" d="M26.5353 3.17318H24.5223L16.8984 10.7891C17.9218 10.801 18.7866 10.8069 19.4549 10.8089L17.9416 15.0016H14.693L15.8433 11.8442L14.5502 13.1373L13.8699 15.0016H13.0905L13.3206 14.363L12.3567 15.3308H12.4816L12.0374 16.5605H11.125L3.06491 24.6226C1.84319 28.2302 0.94872 30.7768 0.439011 31.9311C-0.354309 33.7339 0.0641669 34.6422 0.621475 35.1044L11.7637 23.9621H10.7105C10.4054 23.9621 10.1129 23.841 9.89713 23.6253C9.68141 23.4095 9.56022 23.1169 9.56022 22.8119H12.914L20.1015 15.6244L20.2066 15.3308H20.3871L20.7043 15.0116C20.5715 15.0116 20.4446 15.0116 20.3256 14.9936L21.8329 10.8148C22.0173 10.7831 23.36 10.5808 24.3755 11.3424L31.2913 4.42662C29.8432 3.59944 28.203 3.16719 26.5353 3.17318ZM13.3047 16.5526H12.6145L13.0568 15.3268H13.7509L13.3047 16.5526ZM17.3804 16.5526C16.4919 16.5526 15.4076 16.5526 14.1278 16.5526L14.572 15.3328H17.8226L17.3804 16.5526ZM18.9392 16.5644H18.5248H18.2015L18.6438 15.3308H19.3835L18.9392 16.5644ZM19.5025 14.9977H18.7628L20.2759 10.8069H21.0237L19.5025 14.9977Z" fill="url(#paint8_linear_107_289)"/>
</g>
<defs>
<linearGradient id="paint0_linear_107_289" x1="31.6658" y1="3.77836" x2="17.3245" y2="60.3501" gradientUnits="userSpaceOnUse">
<stop stop-color="#FF922E"/>
<stop offset="1" stop-color="#FFC239"/>
</linearGradient>
<linearGradient id="paint1_linear_107_289" x1="24.606" y1="1.98727" x2="10.2628" y2="58.5589" gradientUnits="userSpaceOnUse">
<stop stop-color="#FF922E"/>
<stop offset="1" stop-color="#FFC239"/>
</linearGradient>
<linearGradient id="paint2_linear_107_289" x1="25.7768" y1="6.96519" x2="6.08459" y2="50.2765" gradientUnits="userSpaceOnUse">
<stop stop-color="#F9F9F9"/>
<stop offset="1" stop-color="#B5B5B5"/>
</linearGradient>
<linearGradient id="paint3_linear_107_289" x1="-5.05713" y1="30.2252" x2="41.7051" y2="-15.7537" gradientUnits="userSpaceOnUse">
<stop stop-color="#F9F9F9"/>
<stop offset="1" stop-color="#B5B5B5"/>
</linearGradient>
<linearGradient id="paint4_linear_107_289" x1="-5.25708" y1="30.025" x2="41.5053" y2="-15.9519" gradientUnits="userSpaceOnUse">
<stop stop-color="#F9F9F9"/>
<stop offset="1" stop-color="#B5B5B5"/>
</linearGradient>
<linearGradient id="paint5_linear_107_289" x1="-5.17202" y1="30.1085" x2="41.5903" y2="-15.8684" gradientUnits="userSpaceOnUse">
<stop stop-color="#F9F9F9"/>
<stop offset="1" stop-color="#B5B5B5"/>
</linearGradient>
<linearGradient id="paint6_linear_107_289" x1="1.91398" y1="37.318" x2="48.6764" y2="-8.66093" gradientUnits="userSpaceOnUse">
<stop stop-color="#F9F9F9"/>
<stop offset="1" stop-color="#B5B5B5"/>
</linearGradient>
<linearGradient id="paint7_linear_107_289" x1="2.04741" y1="37.4547" x2="48.8097" y2="-8.52422" gradientUnits="userSpaceOnUse">
<stop stop-color="#F9F9F9"/>
<stop offset="1" stop-color="#B5B5B5"/>
</linearGradient>
<linearGradient id="paint8_linear_107_289" x1="-1.93699" y1="33.4007" x2="44.8253" y2="-12.5782" gradientUnits="userSpaceOnUse">
<stop stop-color="#F9F9F9"/>
<stop offset="1" stop-color="#B5B5B5"/>
</linearGradient>
<clipPath id="clip0_107_289">
<rect width="36.9091" height="42" fill="white"/>
</clipPath>
</defs>
</svg>
