<svg preserveAspectRatio="none" width="100%" height="100%" overflow="visible" style="display: block;" viewBox="0 0 159.993 39.1094" fill="none" xmlns="http://www.w3.org/2000/svg">
<g id="logo.15a5fcda.svg" clip-path="url(#clip0_107_196)">
<path id="Vector" d="M33.2964 31.8077C32.9825 31.7134 32.6167 31.7892 32.2918 32.3413L27.3201 32.3561L26.6183 34.3008C26.5421 34.5115 26.4029 34.6938 26.2195 34.8226C26.0361 34.9515 25.8175 35.0208 25.5934 35.021L26.5537 32.358H25.8261L25.1261 34.2989C25.0496 34.5099 24.9099 34.6921 24.7263 34.821C24.5426 34.9498 24.3237 35.019 24.0993 35.0192L25.0596 32.3598H24.332L23.6395 34.3008C23.5636 34.5119 23.4245 34.6944 23.241 34.8233C23.0576 34.9523 22.8387 35.0214 22.6145 35.021L23.573 32.3654L18.2173 32.3802H14.5439C14.61 32.1302 14.7568 31.9093 14.9616 31.7516C15.1664 31.594 15.4176 31.5084 15.676 31.5084H18.4462L22.6939 16.4957H15.2051C13.2512 22.7269 11.2973 29.7614 9.34335 36.155C9.01277 37.2335 9.81244 38.5559 10.9408 38.5725C17.859 38.6519 24.7771 38.4949 31.6971 38.5725C31.889 38.575 32.0763 38.5136 32.2294 38.3979C32.3826 38.2822 32.4929 38.1188 32.5429 37.9335L33.9002 32.9379C33.9654 32.708 33.9389 32.4617 33.8263 32.251C33.7137 32.0402 33.5237 31.8812 33.2964 31.8077Z" fill="url(#paint0_linear_107_196)"/>
<path id="Vector_2" d="M27.38 0.0166212V4.20696e-10H19.6992C19.5286 -4.35034e-06 19.3597 0.0337374 19.2022 0.0992815C19.0448 0.164826 18.9019 0.260876 18.7817 0.381901C18.6616 0.502924 18.5665 0.646529 18.5022 0.804441C18.4377 0.962354 18.4051 1.13145 18.4064 1.302H22.2237C22.136 1.53683 21.9805 1.74032 21.777 1.88664C21.5734 2.03295 21.3311 2.11551 21.0805 2.12383L19.6142 2.1663C18.9567 4.31228 18.298 6.45827 17.6381 8.60425H24.9533L27.0162 1.302H27.2193C27.3823 1.3043 27.5403 1.2467 27.6636 1.14014C27.7867 1.03358 27.8666 0.885475 27.8878 0.723946C27.9061 0.564037 27.8642 0.403051 27.7704 0.272311C27.6765 0.141572 27.5374 0.0504311 27.38 0.0166212Z" fill="url(#paint1_linear_107_196)"/>
<path id="Vector_3" d="M33.5167 11.0991L33.5001 10.9052C33.0957 6.38425 29.2506 2.95472 24.7094 2.95472H11.5675C11.0344 2.95442 10.5141 3.11819 10.0773 3.42381C9.64056 3.72943 9.30842 4.16209 9.12604 4.66302C8.78254 5.49408 8.4378 6.32515 8.09184 7.15621H6.94682C6.55611 7.15666 6.17069 7.24661 5.82014 7.41917C5.46959 7.59171 5.16323 7.84228 4.92457 8.15164H11.4327C12.0034 8.15164 12.5685 8.16825 13.1317 8.17933C13.3266 8.18351 13.5183 8.22937 13.694 8.31383C13.8696 8.3983 14.0252 8.51941 14.1501 8.66901C14.275 8.81862 14.3665 8.99325 14.4183 9.18115C14.4701 9.36905 14.481 9.56587 14.4503 9.75836L12.9157 13.969H12.1899L13.6526 9.9061H13.1982L11.7337 13.969H10.8103L12.2767 9.9061C9.85738 9.85807 7.89977 9.81191 5.48046 9.76574C5.19484 9.76058 4.91339 9.83487 4.66753 9.9803C4.42165 10.1257 4.221 10.3366 4.08796 10.5894C3.97318 10.8084 3.88868 11.042 3.8368 11.2838C3.81774 11.3721 3.81999 11.4637 3.84336 11.551C3.86673 11.6382 3.91056 11.7187 3.9712 11.7857C4.03184 11.8526 4.10757 11.9042 4.19211 11.9361C4.27665 11.9679 4.36757 11.9792 4.45733 11.969H4.47025C4.60116 11.9459 4.72477 11.8922 4.83099 11.8123C4.93722 11.7324 5.02307 11.6285 5.08155 11.5091H9.29226C9.29373 11.5904 9.27902 11.6712 9.24898 11.7467C9.21893 11.8223 9.17417 11.8911 9.11728 11.9492C9.0604 12.0073 8.99253 12.0535 8.91763 12.0852C8.84271 12.1167 8.76227 12.1331 8.68097 12.1334H6.47958C3.43236 21.1937 1.29375 27.7185 0.409135 29.7333C-0.475483 31.7483 0.278012 32.5904 0.924393 32.908C1.20383 33.042 1.51023 33.1102 1.82009 33.1075H7.37528L11.0689 22.313H9.97373C9.68964 22.313 9.41719 22.2 9.21631 21.9991C9.01543 21.7983 8.90259 21.5259 8.90259 21.2417H15.1059C17.734 24.9354 20.362 28.6807 22.99 32.3798C25.5164 32.3798 28.0428 32.3411 30.5618 32.3411L21.7951 20.551L24.6927 20.6304C26.7972 20.6388 28.8351 19.8935 30.4374 18.5293C32.0398 17.1651 33.1008 15.2722 33.4281 13.1934C33.5345 12.5007 33.5643 11.7984 33.5167 11.0991ZM11.2092 15.4207H10.3597L10.7752 14.272H11.6229L11.2092 15.4207ZM12.3894 15.4207H11.7467L12.1585 14.2793H12.8049L12.3894 15.4207ZM16.1845 15.4207C15.3572 15.4207 14.3476 15.4207 13.1558 15.4207L13.5694 14.2849H16.5964L16.1845 15.4207ZM13.6821 13.969L15.1134 10.0391C16.3433 10.0557 17.3628 10.0631 18.1163 10.0649L16.7072 13.969H13.6821ZM17.6361 15.4281H17.2501H16.9491L17.3609 14.2756H18.0498L17.6361 15.4281ZM17.4717 13.969L18.8808 10.0668H19.5771L18.1606 13.969H17.4717ZM21.459 14.7355C20.41 15.2656 19.4275 15.3966 18.4025 15.4225L18.8162 14.2756C19.4671 14.3101 20.1193 14.3101 20.7702 14.2756C21.7397 14.2257 22.1793 14.1261 22.617 13.8933C22.8006 13.7943 22.9734 13.6761 23.1322 13.5406C22.641 14.0247 22.0763 14.428 21.459 14.7355ZM23.6031 12.5193C23.4185 13.1823 22.7444 13.4982 22.3787 13.668C21.8875 13.8933 21.4553 13.9247 20.6187 13.9727C20.0553 14.0072 19.4903 14.0072 18.927 13.9727L20.3306 10.0815C20.5152 10.0483 22.0352 9.8193 22.99 10.835C23.1193 10.968 23.8247 11.7086 23.6031 12.5156V12.5193Z" fill="url(#paint2_linear_107_196)"/>
<path id="Vector_4" d="M13.2167 11.1322L13.6563 9.91334H13.1963L12.4983 11.8506L13.2167 11.1322Z" fill="url(#paint3_linear_107_196)"/>
<path id="Vector_5" d="M14.0017 8.51545C14.1755 8.66779 14.3078 8.8617 14.3863 9.07905C14.4648 9.29642 14.4868 9.53014 14.4504 9.75835L14.371 9.97258L21.4018 2.95473H19.5772L14.0017 8.51545Z" fill="url(#paint4_linear_107_196)"/>
<path id="Vector_6" d="M11.0517 13.2971L12.0878 10.4289L4.51583 18.0009C4.19326 18.966 3.88546 19.8852 3.59243 20.7581L11.0517 13.2971Z" fill="url(#paint5_linear_107_196)"/>
<path id="Vector_7" d="M30.0044 4.69655L23.3725 11.3284C23.4884 11.5009 23.5685 11.6948 23.6082 11.8989C23.6478 12.1028 23.6462 12.3126 23.6033 12.5159C23.4187 13.1789 22.7446 13.4947 22.379 13.6646C21.9117 13.8789 21.4998 13.9176 20.7371 13.9638L20.4102 14.2926L20.7704 14.2759C21.74 14.2261 22.1795 14.1263 22.6172 13.8937C22.8009 13.7946 22.9737 13.6763 23.1325 13.5409C22.6447 14.024 22.0838 14.4273 21.4703 14.7358C20.8077 15.07 20.09 15.2815 19.352 15.36L13.4588 21.2384H15.1063C15.4854 21.7703 15.8635 22.3034 16.2402 22.8377L32.1227 6.95519C31.5549 6.08361 30.8379 5.31901 30.0044 4.69655Z" fill="url(#paint6_linear_107_196)"/>
<path id="Vector_8" d="M10.3783 24.3224L1.6041 33.0966C1.67588 33.104 1.748 33.1076 1.82017 33.1076H5.97364L8.103 30.9764L10.3783 24.3224Z" fill="url(#paint7_linear_107_196)"/>
<path id="Vector_9" d="M24.7091 2.95478H22.8345L15.7354 10.0465C16.6883 10.0576 17.4936 10.0631 18.1159 10.065L16.7068 13.9692H13.6818L14.7529 11.029L13.5488 12.2332L12.9153 13.9692H12.1896L12.4038 13.3745L11.5062 14.2756H11.6226L11.2089 15.4207H10.3594L2.85397 22.9279C1.71633 26.2873 0.883425 28.6586 0.408796 29.7334C-0.329924 31.4122 0.0597506 32.258 0.578703 32.6883L10.954 22.313H9.97339C9.6893 22.313 9.41685 22.2001 9.21597 21.9993C9.01509 21.7984 8.90224 21.5259 8.90224 21.2418H12.0252L18.718 14.549L18.8159 14.2756H18.9839L19.2794 13.9784C19.1557 13.9784 19.0375 13.9784 18.9267 13.9617L20.3302 10.0705C20.502 10.041 21.7523 9.8526 22.6979 10.5618L29.1377 4.12196C27.7892 3.35171 26.2619 2.94921 24.7091 2.95478ZM12.389 15.4134H11.7463L12.1582 14.272H12.8045L12.389 15.4134ZM16.1842 15.4134C15.3568 15.4134 14.3472 15.4134 13.1554 15.4134L13.5691 14.2775H16.596L16.1842 15.4134ZM17.6357 15.4244H17.2498H16.9488L17.3607 14.2756H18.0495L17.6357 15.4244ZM18.1603 13.9655H17.4715L18.8805 10.0631H19.5767L18.1603 13.9655Z" fill="url(#paint8_linear_107_196)"/>
<path id="Vector_10" d="M40.754 30.489V8.9368H46.3424C47.6061 8.91111 48.8662 9.07673 50.0804 9.42805C51.0598 9.7108 51.9092 10.3276 52.4812 11.1714C53.0413 12.0062 53.3209 13.1592 53.3196 14.6305C53.3269 15.4233 53.249 16.2146 53.0869 16.9907C52.9527 17.636 52.6804 18.2445 52.2891 18.7748C51.8664 19.3109 51.3114 19.7277 50.6786 19.9844L53.6595 30.4945H49.1625L46.6877 20.7287H45.1438V30.4945L40.754 30.489ZM45.1438 18.1155H46.4218C47.1309 18.1155 47.6894 17.9997 48.0968 17.7682C48.5059 17.5375 48.8147 17.163 48.963 16.7174C49.1456 16.1548 49.2311 15.5653 49.2161 14.974C49.2161 13.9816 49.0313 13.2238 48.662 12.7006C48.2926 12.1774 47.6154 11.9157 46.6305 11.9157H45.1402L45.1438 18.1155Z" fill="var(--fill-0, #F9F9F9)"/>
<path id="Vector_11" d="M61.7323 30.7824C60.0997 30.7824 58.8309 30.5028 57.926 29.9439C57.024 29.3865 56.3496 28.5263 56.0238 27.5172C55.6544 26.4608 55.4698 25.1792 55.4698 23.6722V8.93653H59.8061V24.2891C59.8058 24.8145 59.846 25.3393 59.9261 25.8588C59.9813 26.3175 60.1657 26.7512 60.458 27.1091C60.7325 27.4292 61.1543 27.5893 61.723 27.5893C62.2919 27.5893 62.7228 27.4292 63.0158 27.1091C63.306 26.7513 63.4862 26.3169 63.5347 25.8588C63.6054 25.3385 63.6406 24.8141 63.64 24.2891V8.93653H67.9781V23.6778C67.9781 25.1847 67.7935 26.4664 67.4241 27.5228C67.0977 28.5301 66.4234 29.3883 65.5219 29.9439C64.6268 30.5016 63.3636 30.7811 61.7323 30.7824Z" fill="var(--fill-0, #F9F9F9)"/>
<path id="Vector_12" d="M76.1605 30.7826C74.8295 30.7826 73.7215 30.5364 72.8362 30.0438C71.9406 29.5468 71.2342 28.7677 70.827 27.8277C70.3751 26.8428 70.1134 25.5882 70.042 24.0639L73.8206 23.425C73.8386 24.1711 73.9321 24.9136 74.0995 25.6411C74.2 26.1408 74.4401 26.602 74.7921 26.9708C74.9467 27.1165 75.1285 27.2303 75.3273 27.3058C75.5259 27.3812 75.7376 27.4167 75.9499 27.4103C76.5175 27.4103 76.9029 27.233 77.106 26.8785C77.3157 26.5049 77.4215 26.0822 77.4126 25.654C77.4406 24.8458 77.2125 24.0495 76.7607 23.3788C76.2624 22.6986 75.6867 22.0788 75.045 21.532L72.8085 19.5892C72.0332 18.9417 71.3726 18.1681 70.8546 17.3009C70.3486 16.4489 70.0956 15.4025 70.0956 14.1614C70.0956 12.3884 70.6146 11.0273 71.6524 10.0781C72.6903 9.12883 74.113 8.66282 75.9204 8.68005C77.0027 8.68005 77.8898 8.85735 78.5816 9.21193C79.2365 9.53337 79.7928 10.0252 80.1921 10.6358C80.5727 11.2302 80.8429 11.8883 80.9898 12.5786C81.1384 13.2664 81.2317 13.9648 81.2687 14.6674L77.5179 15.2215C77.4894 14.639 77.4316 14.0583 77.3442 13.4817C77.2941 13.0553 77.1287 12.6505 76.8659 12.3109C76.7301 12.1629 76.5624 12.0477 76.3756 11.9737C76.1889 11.8999 75.9877 11.8692 75.7875 11.8843C75.5632 11.8699 75.3394 11.9154 75.1385 12.0159C74.9376 12.1166 74.767 12.2687 74.6443 12.4568C74.3988 12.832 74.2702 13.2716 74.2749 13.7199C74.2463 14.3864 74.4286 15.0449 74.7957 15.6019C75.2103 16.1644 75.688 16.6774 76.2196 17.131L78.4007 19.048C79.3008 19.8235 80.0851 20.7241 80.7295 21.7222C81.3758 22.7243 81.6997 23.9617 81.7009 25.4342C81.7142 26.3927 81.4754 27.3378 81.0083 28.1749C80.5568 28.9805 79.889 29.644 79.0803 30.09C78.1834 30.5698 77.1773 30.8084 76.1605 30.7826Z" fill="var(--fill-0, #F9F9F9)"/>
<path id="Vector_13" d="M86.015 30.4887V12.2053H82.6907V8.93653H93.707V12.2091H90.4326V30.4924L86.015 30.4887Z" fill="var(--fill-0, #F9F9F9)"/>
<path id="Vector_14" d="M99.037 30.4887V21.9472L94.8337 8.93653H98.9576L101.272 16.5194L103.421 8.93653H107.414L103.263 21.9472V30.4887H99.037Z" fill="var(--fill-0, #F9F9F9)"/>
<path id="Vector_15" d="M109.106 30.4887V8.93653H113.496V27.5172H118.552V30.498L109.106 30.4887Z" fill="var(--fill-0, #FFC239)"/>
<path id="Vector_16" d="M126.346 30.7828C124.767 30.7828 123.517 30.4989 122.594 29.9313C121.675 29.3679 120.976 28.5088 120.612 27.4954C120.213 26.4415 120.014 25.1777 120.014 23.704V15.6685C120.014 14.191 120.213 12.9315 120.612 11.89C120.975 10.8844 121.675 10.0358 122.594 9.48907C123.517 8.9498 124.767 8.68017 126.346 8.68017C127.924 8.68017 129.188 8.95965 130.137 9.51862C131.059 10.0654 131.763 10.9134 132.132 11.9195C132.531 12.9574 132.731 14.2126 132.732 15.6851V23.7205C132.732 25.1979 132.532 26.4618 132.132 27.512C131.765 28.5283 131.061 29.3881 130.137 29.9479C129.206 30.5045 127.941 30.7828 126.346 30.7828ZM126.346 27.6155C126.912 27.6155 127.331 27.488 127.596 27.2295C127.876 26.9465 128.062 26.5841 128.128 26.1915C128.219 25.7318 128.263 25.2641 128.261 24.7953V14.6047C128.265 14.1403 128.219 13.6768 128.128 13.2215C128.061 12.8308 127.876 12.4703 127.596 12.1891C127.331 11.9428 126.913 11.8197 126.346 11.8197C125.814 11.8197 125.423 11.949 125.148 12.2057C124.869 12.4849 124.684 12.8427 124.616 13.2307C124.524 13.686 124.479 14.1495 124.483 14.614V24.8046C124.48 25.2727 124.521 25.74 124.602 26.2008C124.661 26.5933 124.842 26.9569 125.122 27.2387C125.387 27.488 125.796 27.6155 126.346 27.6155Z" fill="var(--fill-0, #FFC239)"/>
<path id="Vector_17" d="M141.142 30.7828C139.564 30.7828 138.313 30.4989 137.39 29.9313C136.472 29.3679 135.772 28.5088 135.407 27.4954C135.014 26.4415 134.817 25.1777 134.817 23.704V15.6685C134.817 14.191 135.016 12.9315 135.416 11.89C135.778 10.8844 136.479 10.0358 137.397 9.48907C138.314 8.9498 139.562 8.68017 141.142 8.68017C142.722 8.68017 143.985 8.95965 144.933 9.51862C145.855 10.0654 146.559 10.9134 146.928 11.9195C147.327 12.9574 147.526 14.2126 147.526 15.6851V23.7205C147.526 25.1979 147.327 26.4618 146.928 27.512C146.562 28.5283 145.858 29.3881 144.933 29.9479C144.002 30.5045 142.737 30.7828 141.142 30.7828ZM141.142 27.6155C141.709 27.6155 142.127 27.488 142.392 27.2295C142.672 26.9465 142.858 26.5841 142.925 26.1915C143.016 25.7318 143.06 25.2641 143.057 24.7953V14.6047C143.061 14.1403 143.016 13.6768 142.925 13.2215C142.857 12.8304 142.67 12.4698 142.389 12.1891C142.126 11.9428 141.71 11.8197 141.142 11.8197C140.608 11.8197 140.208 11.9484 139.944 12.2057C139.665 12.4849 139.481 12.8427 139.412 13.2307C139.321 13.686 139.276 14.1495 139.279 14.614V24.8046C139.277 25.2727 139.317 25.74 139.399 26.2008C139.457 26.5933 139.638 26.9569 139.918 27.2387C140.183 27.488 140.592 27.6155 141.142 27.6155Z" fill="var(--fill-0, #FFC239)"/>
<path id="Vector_18" d="M152.3 30.4887V12.2053H148.976V8.93653H159.992V12.2091H156.718V30.4924L152.3 30.4887Z" fill="var(--fill-0, #FFC239)"/>
</g>
<defs>
<linearGradient id="paint0_linear_107_196" x1="29.4865" y1="3.51831" x2="16.1321" y2="56.1965" gradientUnits="userSpaceOnUse">
<stop stop-color="#FF922E"/>
<stop offset="1" stop-color="#FFC239"/>
</linearGradient>
<linearGradient id="paint1_linear_107_196" x1="22.9125" y1="1.8505" x2="9.5565" y2="54.5287" gradientUnits="userSpaceOnUse">
<stop stop-color="#FF922E"/>
<stop offset="1" stop-color="#FFC239"/>
</linearGradient>
<linearGradient id="paint2_linear_107_196" x1="24.0039" y1="6.48582" x2="5.66699" y2="46.8163" gradientUnits="userSpaceOnUse">
<stop stop-color="#F9F9F9"/>
<stop offset="1" stop-color="#B5B5B5"/>
</linearGradient>
<linearGradient id="paint3_linear_107_196" x1="-4.71023" y1="28.145" x2="38.8337" y2="-14.6694" gradientUnits="userSpaceOnUse">
<stop stop-color="#F9F9F9"/>
<stop offset="1" stop-color="#B5B5B5"/>
</linearGradient>
<linearGradient id="paint4_linear_107_196" x1="-4.89295" y1="27.9586" x2="38.651" y2="-14.854" gradientUnits="userSpaceOnUse">
<stop stop-color="#F9F9F9"/>
<stop offset="1" stop-color="#B5B5B5"/>
</linearGradient>
<linearGradient id="paint5_linear_107_196" x1="-4.81606" y1="28.0363" x2="38.7279" y2="-14.7762" gradientUnits="userSpaceOnUse">
<stop stop-color="#F9F9F9"/>
<stop offset="1" stop-color="#B5B5B5"/>
</linearGradient>
<linearGradient id="paint6_linear_107_196" x1="1.7834" y1="34.7496" x2="45.3273" y2="-8.06485" gradientUnits="userSpaceOnUse">
<stop stop-color="#F9F9F9"/>
<stop offset="1" stop-color="#B5B5B5"/>
</linearGradient>
<linearGradient id="paint7_linear_107_196" x1="1.90882" y1="34.8769" x2="45.4528" y2="-7.93754" gradientUnits="userSpaceOnUse">
<stop stop-color="#F9F9F9"/>
<stop offset="1" stop-color="#B5B5B5"/>
</linearGradient>
<linearGradient id="paint8_linear_107_196" x1="-1.80368" y1="31.1019" x2="41.7403" y2="-11.7125" gradientUnits="userSpaceOnUse">
<stop stop-color="#F9F9F9"/>
<stop offset="1" stop-color="#B5B5B5"/>
</linearGradient>
<clipPath id="clip0_107_196">
<rect width="159.993" height="39.1094" fill="white"/>
</clipPath>
</defs>
</svg>
