<svg preserveAspectRatio="none" width="100%" height="100%" overflow="visible" style="display: block;" viewBox="0 0 20.7969 24.6875" fill="none" xmlns="http://www.w3.org/2000/svg">
<g id="Frame">
<path id="Vector" d="M19.9832 9.08738C19.4603 7.85022 18.7077 6.73422 17.7575 5.78403C16.801 4.82747 15.6915 4.08135 14.4542 3.55843C13.5167 3.16304 12.5347 2.90797 11.5208 2.79955V2.11082H12.286C12.5921 2.11082 12.8472 1.86211 12.8472 1.54963V0.561186C12.8472 0.255084 12.5985 0 12.286 0H8.51715C8.21105 0 7.95596 0.248707 7.95596 0.561186V1.55601C7.95596 1.86211 8.20467 2.1172 8.51715 2.1172H9.28241V2.79955C8.27482 2.90797 7.29275 3.16304 6.34893 3.55843C5.11178 4.08135 3.99579 4.83385 3.04559 5.78403C2.09541 6.73422 1.34291 7.85022 0.819983 9.08738C0.277929 10.3692 0.00371276 11.7275 0.00371276 13.1305C0.00371276 14.5334 0.277929 15.8981 0.819983 17.1799C1.34291 18.4171 2.09541 19.5331 3.04559 20.4832C4.00215 21.4398 5.11178 22.186 6.34893 22.7089C7.63711 23.2573 8.99543 23.5315 10.3984 23.5315C11.8014 23.5315 13.166 23.2573 14.4478 22.7152C15.685 22.1924 16.801 21.4398 17.7512 20.4896C18.7077 19.533 19.4538 18.4235 19.9768 17.1863C20.5189 15.9045 20.7931 14.5398 20.7931 13.1369C20.7994 11.7275 20.5253 10.3692 19.9832 9.08738ZM10.3984 21.6758C5.68571 21.6758 1.85308 17.8431 1.85308 13.1305C1.85308 8.41778 5.68571 4.58514 10.3984 4.58514C15.111 4.58514 18.9437 8.41778 18.9437 13.1305C18.9501 17.8431 15.111 21.6758 10.3984 21.6758Z" fill="var(--fill-0, #8C98A8)"/>
</g>
</svg>
