<svg preserveAspectRatio="none" width="100%" height="100%" overflow="visible" style="display: block;" viewBox="0 0 24.0006 24" fill="none" xmlns="http://www.w3.org/2000/svg">
<g id="Group">
<path id="Vector" d="M11.9975 6.37207C12.7 6.37207 13.2638 6.93207 13.2644 7.63145C13.265 8.32707 12.6956 8.89957 12.0013 8.90082C11.3088 8.90207 10.735 8.32895 10.7344 7.63582C10.7338 6.93645 11.2969 6.37269 11.9975 6.37207Z" fill="var(--fill-0, #3B436B)"/>
<path id="Vector_2" d="M11.0638 14.0087C11.0638 13.0018 11.0607 11.9943 11.0657 10.9875C11.0676 10.5712 11.3251 10.2225 11.7026 10.0962C12.0776 9.97121 12.5051 10.0806 12.727 10.4081C12.8388 10.5731 12.9282 10.7925 12.9295 10.9881C12.9439 12.9943 12.9407 15.0006 12.937 17.0068C12.9357 17.5556 12.5214 17.9606 11.9888 17.9556C11.4707 17.9506 11.0682 17.5443 11.0651 17.0056C11.0601 16.0062 11.0638 15.0074 11.0638 14.0087Z" fill="var(--fill-0, #3B436B)"/>
<path id="Vector_3" d="M12.75 24H11.25C11.19 23.9869 11.1306 23.9656 11.07 23.9613C9.79125 23.8663 8.55188 23.5925 7.38062 23.0713C3.43 21.315 1.01813 18.3175 0.18375 14.0675C0.09875 13.6331 0.06 13.1894 0 12.75V11.25C0.01375 11.1819 0.029375 11.1144 0.04 11.0463C0.135 10.4381 0.191875 9.82125 0.33 9.22313C1.40375 4.57625 5.24 0.978125 9.95562 0.179375C10.385 0.106875 10.8188 0.059375 11.25 0C11.75 0 12.25 0 12.75 0C12.81 0.013125 12.87 0.02875 12.9306 0.03875C13.6825 0.168125 14.4594 0.21625 15.1831 0.43875C19.9231 1.8975 22.81 5.0675 23.8156 9.93188C23.905 10.3656 23.94 10.81 24.0006 11.25V12.75C23.9875 12.8106 23.9669 12.87 23.9619 12.9312C23.7513 15.5606 22.7875 17.8806 21.0569 19.8662C19.1963 22.0012 16.86 23.3212 14.0675 23.8181C13.6313 23.8956 13.1888 23.94 12.75 24ZM12.0031 1.875C6.41625 1.8725 1.88812 6.39187 1.875 11.9844C1.86188 17.575 6.4 22.1213 11.9963 22.1244C17.5825 22.1275 22.1112 17.6075 22.1244 12.0144C22.1381 6.42187 17.6018 1.87813 12.0031 1.875Z" fill="var(--fill-0, #3B436B)"/>
</g>
</svg>
