<svg preserveAspectRatio="none" width="100%" height="100%" overflow="visible" style="display: block;" viewBox="0 0 30 33" fill="none" xmlns="http://www.w3.org/2000/svg">
<g id="Frame">
<path id="Vector" d="M15.0461 23.2046C18.8615 23.2046 21.9545 20.1116 21.9545 16.2962C21.9545 12.4808 18.8615 9.38777 15.0461 9.38777C11.2307 9.38777 8.13765 12.4808 8.13765 16.2962C8.13765 20.1116 11.2307 23.2046 15.0461 23.2046Z" stroke="var(--stroke-0, #3B436B)" stroke-width="1.32353"/>
<path id="Vector_2" d="M15.0454 18.776C16.5128 18.776 17.7024 17.6261 17.7024 16.2075C17.7024 14.789 16.5128 13.639 15.0454 13.639C13.5779 13.639 12.3883 14.789 12.3883 16.2075C12.3883 17.6261 13.5779 18.776 15.0454 18.776Z" stroke="var(--stroke-0, #4D5B97)" stroke-width="1.32353"/>
<path id="Vector_3" d="M13.7973 6.79453L14.9999 2.58533L16.2025 6.79453H13.7973Z" stroke="var(--stroke-0, #4D5B97)" stroke-width="1.32353"/>
<path id="Vector_4" d="M16.2027 25.7977L15.0001 30.0069L13.7975 25.7977H16.2027Z" stroke="var(--stroke-0, #4D5B97)" stroke-width="1.32353"/>
<path id="Vector_5" d="M6.17007 12.5868L3.12612 9.44065L7.3727 10.5038L6.17007 12.5868Z" stroke="var(--stroke-0, #4D5B97)" stroke-width="1.32353"/>
<path id="Vector_6" d="M23.8299 20.0055L26.8739 23.1516L22.6273 22.0886L23.8299 20.0055Z" stroke="var(--stroke-0, #4D5B97)" stroke-width="1.32353"/>
<path id="Vector_7" d="M22.6271 10.5038L26.8737 9.44074L23.8298 12.5869L22.6271 10.5038Z" stroke="var(--stroke-0, #4D5B97)" stroke-width="1.32353"/>
<path id="Vector_8" d="M7.37283 22.0884L3.12622 23.1514L6.1702 20.0053L7.37283 22.0884Z" stroke="var(--stroke-0, #4D5B97)" stroke-width="1.32353"/>
</g>
</svg>
