<svg preserveAspectRatio="none" width="100%" height="100%" overflow="visible" style="display: block;" viewBox="0 0 20.0001 20" fill="none" xmlns="http://www.w3.org/2000/svg">
<g id="Frame">
<path id="Vector" d="M7.02898 0.625H1.66667C1.09137 0.625 0.625 1.09137 0.625 1.66667V7.02898C0.625 7.60428 1.09137 8.07065 1.66667 8.07065H7.02898C7.60428 8.07065 8.07065 7.60428 8.07065 7.02898V1.66667C8.07065 1.09137 7.60428 0.625 7.02898 0.625Z" stroke="var(--stroke-0, #EC981A)" stroke-width="1.25"/>
<path id="Vector_2" d="M7.02898 11.9293H1.66667C1.09137 11.9293 0.625 12.3957 0.625 12.971V18.3333C0.625 18.9086 1.09137 19.375 1.66667 19.375H7.02898C7.60428 19.375 8.07065 18.9086 8.07065 18.3333V12.971C8.07065 12.3957 7.60428 11.9293 7.02898 11.9293Z" stroke="var(--stroke-0, #A96500)" stroke-width="1.25"/>
<path id="Vector_3" d="M18.3335 0.625H12.9712C12.3959 0.625 11.9295 1.09137 11.9295 1.66667V7.02898C11.9295 7.60428 12.3959 8.07065 12.9712 8.07065H18.3335C18.9088 8.07065 19.3751 7.60428 19.3751 7.02898V1.66667C19.3751 1.09137 18.9088 0.625 18.3335 0.625Z" stroke="var(--stroke-0, #FFC701)" stroke-width="1.25"/>
<path id="Vector_4" d="M18.3335 11.9293H12.9712C12.3959 11.9293 11.9295 12.3957 11.9295 12.971V18.3333C11.9295 18.9086 12.3959 19.375 12.9712 19.375H18.3335C18.9088 19.375 19.3751 18.9086 19.3751 18.3333V12.971C19.3751 12.3957 18.9088 11.9293 18.3335 11.9293Z" stroke="var(--stroke-0, #EC981A)" stroke-width="1.25"/>
</g>
</svg>
