<svg preserveAspectRatio="none" width="100%" height="100%" overflow="visible" style="display: block;" viewBox="0 0 26 29" fill="none" xmlns="http://www.w3.org/2000/svg">
<g id="Frame">
<path id="Vector" d="M13.0718 18.3103C15.4238 18.3103 17.3304 16.4037 17.3304 14.0517C17.3304 11.6998 15.4238 9.7931 13.0718 9.7931C10.7198 9.7931 8.81319 11.6998 8.81319 14.0517C8.81319 16.4037 10.7198 18.3103 13.0718 18.3103Z" stroke="var(--stroke-0, #3B436B)" stroke-width="1.34483"/>
<path id="Vector_2" d="M13 15.6207C13.8665 15.6207 14.569 14.9182 14.569 14.0517C14.569 13.1852 13.8665 12.4828 13 12.4828C12.1335 12.4828 11.431 13.1852 11.431 14.0517C11.431 14.9182 12.1335 15.6207 13 15.6207Z" stroke="var(--stroke-0, #3B436B)" stroke-width="1.34483"/>
<path id="Vector_3" d="M16.8487 25.1752C10.3545 26.9614 3.80795 23.4991 2.22677 17.4419C1.32739 13.9965 2.22817 10.4538 4.36736 7.71034" stroke="var(--stroke-0, #2D3660)" stroke-width="1.34483" stroke-linecap="round" stroke-linejoin="round"/>
<path id="Vector_4" d="M9.03661 3.38935C15.5309 1.60316 22.0773 5.06552 23.6586 11.1228C24.5579 14.5681 23.6571 18.1109 21.518 20.8543" stroke="var(--stroke-0, #2D3660)" stroke-width="1.34483" stroke-linecap="round" stroke-linejoin="round"/>
<path id="Vector_5" d="M0.861531 8.54885L4.31934 7.59782L5.22513 11.0677" stroke="var(--stroke-0, #2D3660)" stroke-width="1.34483" stroke-linecap="round" stroke-linejoin="round"/>
<path id="Vector_6" d="M25.0237 20.0158L21.566 20.9668L20.6601 17.4969" stroke="var(--stroke-0, #2D3660)" stroke-width="1.34483" stroke-linecap="round" stroke-linejoin="round"/>
</g>
</svg>
