<svg preserveAspectRatio="none" width="100%" height="100%" overflow="visible" style="display: block;" viewBox="0 0 32 32" fill="none" xmlns="http://www.w3.org/2000/svg">
<g id="Frame">
<path id="Vector" d="M12.2766 19.7227L13.8896 18.1098" stroke="var(--stroke-0, #3B436B)" stroke-width="1.41176" stroke-linecap="round" stroke-linejoin="round"/>
<path id="Vector_2" d="M18.319 13.6809L19.7226 12.2773" stroke="var(--stroke-0, #3B436B)" stroke-width="1.41176" stroke-linecap="round" stroke-linejoin="round"/>
<path id="Vector_3" d="M12.2766 12.2773L13.6804 13.6809" stroke="var(--stroke-0, #3B436B)" stroke-width="1.41176" stroke-linecap="round" stroke-linejoin="round"/>
<path id="Vector_4" d="M18.319 18.3191L19.7226 19.7227" stroke="var(--stroke-0, #3B436B)" stroke-width="1.41176" stroke-linecap="round" stroke-linejoin="round"/>
<path id="Vector_5" d="M23.986 23.9862C28.3966 19.5755 28.3966 12.4245 23.986 8.01385C19.5753 3.60323 12.4244 3.60323 8.01372 8.01385C3.6031 12.4245 3.6031 19.5755 8.01372 23.9862C12.4244 28.3968 19.5753 28.3968 23.986 23.9862Z" stroke="var(--stroke-0, #4D5B97)" stroke-width="1.41176" stroke-linecap="round" stroke-linejoin="round"/>
<path id="Vector_6" d="M23.986 23.9862C28.3966 19.5755 28.3966 12.4245 23.986 8.01385C19.5753 3.60323 12.4244 3.60323 8.01372 8.01385C3.6031 12.4245 3.6031 19.5755 8.01372 23.9862C12.4244 28.3968 19.5753 28.3968 23.986 23.9862Z" stroke="var(--stroke-0, #3B436B)" stroke-width="1.41176" stroke-linecap="round" stroke-linejoin="round" stroke-dasharray="4.71 4.71"/>
<path id="Vector_7" d="M18.1099 18.1098C19.2752 16.9447 19.2752 15.0553 18.1099 13.8902C16.9448 12.7249 15.0554 12.7249 13.8902 13.8902C12.725 15.0553 12.725 16.9447 13.8902 18.1098C15.0554 19.2751 16.9448 19.2751 18.1099 18.1098Z" stroke="var(--stroke-0, #2D3660)" stroke-width="1.41176" stroke-linecap="round" stroke-linejoin="round"/>
<path id="Vector_8" d="M12.0854 12.0854C12.6632 11.5076 12.6632 10.5707 12.0854 9.99294C11.5076 9.41515 10.5707 9.41515 9.99294 9.99294C9.41506 10.5707 9.41506 11.5076 9.99294 12.0854C10.5707 12.6632 11.5076 12.6632 12.0854 12.0854Z" stroke="var(--stroke-0, #3B436B)" stroke-width="1.41176" stroke-linecap="round" stroke-linejoin="round"/>
<path id="Vector_9" d="M22.0072 22.0071C22.585 21.4293 22.585 20.4924 22.0072 19.9146C21.4295 19.3368 20.4926 19.3368 19.9148 19.9146C19.3369 20.4924 19.3369 21.4293 19.9148 22.0071C20.4926 22.5848 21.4295 22.5848 22.0072 22.0071Z" stroke="var(--stroke-0, #3B436B)" stroke-width="1.41176" stroke-linecap="round" stroke-linejoin="round"/>
<path id="Vector_10" d="M22.0072 12.0853C22.585 11.5075 22.585 10.5706 22.0072 9.99285C21.4295 9.41506 20.4926 9.41506 19.9148 9.99285C19.3369 10.5706 19.3369 11.5075 19.9148 12.0853C20.4926 12.6631 21.4295 12.6631 22.0072 12.0853Z" stroke="var(--stroke-0, #3B436B)" stroke-width="1.41176" stroke-linecap="round" stroke-linejoin="round"/>
<path id="Vector_11" d="M12.0854 22.0071C12.6632 21.4293 12.6632 20.4924 12.0854 19.9146C11.5076 19.3368 10.5707 19.3368 9.99294 19.9146C9.41506 20.4924 9.41506 21.4293 9.99294 22.0071C10.5707 22.5848 11.5076 22.5848 12.0854 22.0071Z" stroke="var(--stroke-0, #3B436B)" stroke-width="1.41176" stroke-linecap="round" stroke-linejoin="round"/>
</g>
</svg>
