<svg preserveAspectRatio="none" width="100%" height="100%" overflow="visible" style="display: block;" viewBox="0 0 26 26.0001" fill="none" xmlns="http://www.w3.org/2000/svg">
<g id="Frame">
<path id="Vector" d="M12.9998 9.89339C15.5074 9.89339 17.5402 7.86056 17.5402 5.35295C17.5402 2.84533 15.5074 0.8125 12.9998 0.8125C10.4922 0.8125 8.45934 2.84533 8.45934 5.35295C8.45934 7.86056 10.4922 9.89339 12.9998 9.89339Z" stroke="var(--stroke-0, #2D3660)" stroke-width="1.625"/>
<path id="Vector_2" d="M5.35295 25.1876C7.86056 25.1876 9.89339 23.1548 9.89339 20.6471C9.89339 18.1395 7.86056 16.1067 5.35295 16.1067C2.84533 16.1067 0.8125 18.1395 0.8125 20.6471C0.8125 23.1548 2.84533 25.1876 5.35295 25.1876Z" stroke="var(--stroke-0, #4D5B97)" stroke-width="1.625"/>
<path id="Vector_3" d="M20.6466 25.1876C23.1542 25.1876 25.187 23.1548 25.187 20.6471C25.187 18.1395 23.1542 16.1067 20.6466 16.1067C18.139 16.1067 16.1062 18.1395 16.1062 20.6471C16.1062 23.1548 18.139 25.1876 20.6466 25.1876Z" stroke="var(--stroke-0, #3B436B)" stroke-width="1.625"/>
</g>
</svg>
