<svg preserveAspectRatio="none" width="100%" height="100%" overflow="visible" style="display: block;" viewBox="0 0 26 26" fill="none" xmlns="http://www.w3.org/2000/svg">
<g id="Frame">
<path id="Vector" d="M22.262 20.6245C21.1385 21.9942 19.7248 23.0973 18.1231 23.854C16.5213 24.6107 14.7715 25.0021 13 25C9.81737 25 6.7651 23.7357 4.51467 21.4853C2.26423 19.2349 1 16.1826 1 13" stroke="var(--stroke-0, #3B436B)" stroke-width="1.5" stroke-linecap="round" stroke-linejoin="round"/>
<path id="Vector_2" d="M1 13C1 9.81737 2.26423 6.76518 4.51467 4.51475C6.7651 2.26431 9.81737 1 13 1" stroke="var(--stroke-0, #4D5B97)" stroke-width="1.5" stroke-linecap="round" stroke-linejoin="round"/>
<path id="Vector_3" d="M13 1C16.1826 1 19.2349 2.26431 21.4853 4.51475C23.7357 6.76518 25 9.81737 25 13C25.0053 15.7831 24.0367 18.4805 22.262 20.6244" stroke="var(--stroke-0, #2D3660)" stroke-width="1.5" stroke-linecap="round" stroke-linejoin="round"/>
<path id="Vector_4" d="M13 19C16.3137 19 19 16.3137 19 13C19 9.68629 16.3137 7 13 7C9.68629 7 7 9.68629 7 13C7 16.3137 9.68629 19 13 19Z" stroke="var(--stroke-0, #3B436B)" stroke-width="1.5"/>
</g>
</svg>
