<svg preserveAspectRatio="none" width="100%" height="100%" overflow="visible" style="display: block;" viewBox="0 0 20 19.25" fill="none" xmlns="http://www.w3.org/2000/svg">
<g id="Frame">
<path id="Vector" d="M18.8846 5.77145C17.4341 9.04669 15.9836 12.2752 14.3517 15.5504C14.0175 16.4232 13.4368 17.172 12.6851 17.6997C11.9333 18.2274 11.0453 18.5096 10.1362 18.5096C9.22696 18.5096 8.33865 18.2274 7.58694 17.6997C6.83514 17.172 6.25442 16.4232 5.92027 15.5504L1.11538 5.77145L10 0.740384L18.8846 5.77145Z" stroke="var(--stroke-0, #4D5B97)" stroke-width="1.11058" stroke-linecap="round" stroke-linejoin="round"/>
<path id="Vector_2" d="M15.0217 7.21414C14.2018 9.32381 13.3819 11.4034 12.4596 13.513C12.2707 14.0752 11.9425 14.5575 11.5176 14.8974C11.0927 15.2373 10.5907 15.4191 10.0769 15.4191C9.56302 15.4191 9.0609 15.2373 8.63599 14.8974C8.21108 14.5575 7.88287 14.0752 7.694 13.513L4.97819 7.21414L10.0769 3.83044L15.0217 7.21414Z" stroke="var(--stroke-0, #4D5B97)" stroke-width="1.11058" stroke-linecap="round" stroke-linejoin="round"/>
</g>
</svg>
