<svg preserveAspectRatio="none" width="100%" height="100%" overflow="visible" style="display: block;" viewBox="0 0 20 20.7969" fill="none" xmlns="http://www.w3.org/2000/svg">
<g id="Frame">
<path id="Vector" d="M17.9187 12.1435C17.9187 13.7635 17.3624 15.3172 16.3724 16.4627C15.3824 17.6082 14.0396 18.2517 12.6394 18.2517" stroke="var(--stroke-0, #4D5B97)" stroke-width="1.19982" stroke-miterlimit="10"/>
<path id="Vector_2" d="M2.08106 7.78066C2.08106 6.86333 2.28607 5.955 2.68432 5.10759C3.08258 4.26018 3.6663 3.49033 4.40211 2.84201C5.13791 2.19369 6.01138 1.67964 6.97257 1.32923C7.93376 0.978838 8.96383 0.798954 10.0038 0.799881C12.103 0.799881 14.1162 1.53536 15.6005 2.84452C17.0848 4.15367 17.9187 5.92924 17.9187 7.78066" stroke="var(--stroke-0, #4D5B97)" stroke-width="1.19982" stroke-miterlimit="10"/>
<path id="Vector_3" d="M5.13121 6.03543C5.48906 6.03543 5.83227 6.16032 6.08532 6.38263C6.33836 6.60494 6.48053 6.90645 6.48053 7.22084V12.7034C6.48053 13.0178 6.33836 13.3193 6.08532 13.5416C5.83227 13.7639 5.48906 13.8888 5.13121 13.8888C4.61512 13.8888 4.1041 13.7995 3.6273 13.626C3.1505 13.4525 2.71728 13.1982 2.35235 12.8776C1.98743 12.557 1.69795 12.1763 1.50046 11.7575C1.30296 11.3386 1.20131 10.8897 1.20131 10.4363V9.48795C1.20131 8.57232 1.61535 7.69413 2.35235 7.04665C3.08935 6.39917 4.08893 6.03543 5.13121 6.03543Z" stroke="var(--stroke-0, #4D5B97)" stroke-width="1.19982" stroke-miterlimit="10"/>
<path id="Vector_4" d="M14.869 13.889C14.5112 13.889 14.1679 13.764 13.9149 13.5417C13.6619 13.3195 13.5196 13.0179 13.5196 12.7035V7.22101C13.5196 6.90662 13.6619 6.60508 13.9149 6.38277C14.1679 6.16046 14.5112 6.03557 14.869 6.03557C15.9113 6.03557 16.9109 6.39935 17.6478 7.04682C18.3848 7.69429 18.7988 8.57248 18.7988 9.48811V10.4512C18.7944 11.3643 18.3784 12.2387 17.6419 12.883C16.9054 13.5273 15.9084 13.889 14.869 13.889Z" stroke="var(--stroke-0, #4D5B97)" stroke-width="1.19982" stroke-miterlimit="10"/>
<path id="Vector_5" d="M11.3104 17.3791H10.4495C9.7154 17.3791 9.12021 17.9651 9.12021 18.6879C9.12021 19.4109 9.7154 19.9969 10.4495 19.9969H11.3104C12.0446 19.9969 12.6397 19.4109 12.6397 18.6879C12.6397 17.9651 12.0446 17.3791 11.3104 17.3791Z" stroke="var(--stroke-0, #4D5B97)" stroke-width="1.19982" stroke-miterlimit="10"/>
</g>
</svg>
