<svg preserveAspectRatio="none" width="100%" height="100%" overflow="visible" style="display: block;" viewBox="0 0 20 17.75" fill="none" xmlns="http://www.w3.org/2000/svg">
<g id="Frame">
<path id="Vector" d="M14.1241 17.0105H16.2772C17.7162 17.0105 18.8828 15.8449 18.8828 14.4072C18.8828 12.2505 17.1329 10.5022 14.9744 10.5022H14.1241" stroke="var(--stroke-0, #4D5B97)" stroke-width="1.11035" stroke-linecap="round" stroke-linejoin="round"/>
<path id="Vector_2" d="M12.538 7.2479C14.2902 7.2479 15.7105 5.79096 15.7105 3.99374C15.7105 2.19652 14.2902 0.739583 12.538 0.739583" stroke="var(--stroke-0, #4D5B97)" stroke-width="1.11035" stroke-linecap="round" stroke-linejoin="round"/>
<path id="Vector_3" d="M1.1172 14.4072C1.1172 12.2505 2.86706 10.5022 5.02562 10.5022H8.31249C10.471 10.5022 12.2208 12.2505 12.2208 14.4072C12.2208 15.8449 11.0543 17.0105 9.61523 17.0105H3.72281C2.28377 17.0105 1.1172 15.8449 1.1172 14.4072Z" stroke="var(--stroke-0, #4D5B97)" stroke-width="1.11035" stroke-linecap="round" stroke-linejoin="round"/>
<path id="Vector_4" d="M6.66941 7.2479C8.42152 7.2479 9.84189 5.79097 9.84189 3.99374C9.84189 2.19652 8.42152 0.739583 6.66941 0.739583C4.9173 0.739583 3.49693 2.19652 3.49693 3.99374C3.49693 5.79097 4.9173 7.2479 6.66941 7.2479Z" stroke="var(--stroke-0, #4D5B97)" stroke-width="1.11035" stroke-linecap="round" stroke-linejoin="round"/>
</g>
</svg>
