<svg preserveAspectRatio="none" width="100%" height="100%" overflow="visible" style="display: block;" viewBox="0 0 20.2217 20.7969" fill="none" xmlns="http://www.w3.org/2000/svg">
<g id="Frame">
<path id="Vector" d="M4.5451 19.628C4.54501 19.6279 4.54484 19.6276 4.5446 19.6273M12.8179 6.99939L12.9542 7.2884L13.2701 7.33655L19.1467 8.23245C19.1937 8.24053 19.2316 8.24965 19.2615 8.25853C19.24 8.28996 19.2082 8.33004 19.1622 8.37851L14.9116 12.7247L14.6993 12.9417L14.7485 13.2413L15.7544 19.3732C15.7566 19.3924 15.7595 19.4345 15.7599 19.5077C15.7475 19.5013 15.7339 19.4937 15.7192 19.4849L15.7101 19.4795L15.7007 19.4743L10.4395 16.5746L10.1499 16.415L9.86034 16.5746L4.59949 19.4743L4.59103 19.4791C4.56815 19.4921 4.54774 19.5028 4.5297 19.5113C4.53014 19.5057 4.53071 19.499 4.53146 19.4911C4.53421 19.4622 4.53864 19.4241 4.54516 19.3757L5.55146 13.2413L5.60068 12.9413L5.38778 12.7242L1.13454 8.38715C1.0895 8.33524 1.05825 8.29252 1.037 8.25893C1.06707 8.24989 1.10529 8.24069 1.15305 8.23245L7.02992 7.33655L7.3458 7.2884L7.48211 6.9994L10.1185 1.40944L10.1217 1.4028L10.1246 1.39608C10.1334 1.37622 10.1419 1.35833 10.1501 1.34226C10.1582 1.35829 10.1667 1.37612 10.1754 1.39591L10.1785 1.40271L10.1816 1.40943L12.8179 6.99939Z" stroke="var(--stroke-0, #4D5B97)" stroke-width="1.19982"/>
</g>
</svg>
